<?xml version="1.0" encoding="UTF-8" standalone="no"?>
<!-- Created with Inkscape (http://www.inkscape.org/) -->

<svg
   xmlns:dc="http://purl.org/dc/elements/1.1/"
   xmlns:cc="http://creativecommons.org/ns#"
   xmlns:rdf="http://www.w3.org/1999/02/22-rdf-syntax-ns#"
   xmlns:svg="http://www.w3.org/2000/svg"
   xmlns="http://www.w3.org/2000/svg"
   xmlns:sodipodi="http://sodipodi.sourceforge.net/DTD/sodipodi-0.dtd"
   xmlns:inkscape="http://www.inkscape.org/namespaces/inkscape"
   width="394.78964"
   height="222.31635"
   id="svg6656"
   version="1.1"
   inkscape:version="0.48.4 r9939"
   sodipodi:docname="1.svg">
  <defs
     id="defs6658" />
  <sodipodi:namedview
     id="base"
     pagecolor="#ffffff"
     bordercolor="#666666"
     borderopacity="1.0"
     inkscape:pageopacity="0.0"
     inkscape:pageshadow="2"
     inkscape:zoom="0.35"
     inkscape:cx="197.39482"
     inkscape:cy="111.15822"
     inkscape:document-units="px"
     inkscape:current-layer="layer1"
     showgrid="false"
     inkscape:window-width="752"
     inkscape:window-height="693"
     inkscape:window-x="1"
     inkscape:window-y="24"
     inkscape:window-maximized="0"
     fit-margin-top="0"
     fit-margin-left="0"
     fit-margin-right="0"
     fit-margin-bottom="0" />
  <metadata
     id="metadata6661">
    <rdf:RDF>
      <cc:Work
         rdf:about="">
        <dc:format>image/svg+xml</dc:format>
        <dc:type
           rdf:resource="http://purl.org/dc/dcmitype/StillImage" />
        <dc:title />
      </cc:Work>
    </rdf:RDF>
  </metadata>
  <g
     inkscape:label="Layer 1"
     inkscape:groupmode="layer"
     id="layer1"
     transform="translate(-177.60517,-421.20406)">
    <g
       transform="matrix(1.25,0,0,-1.25,18.932425,1297.5174)"
       id="g6509"
       style="fill:none;stroke:#CCB5A9;stroke-opacity:1">
      <path
         style="fill:none;stroke:#CCB5A9;stroke-opacity:1"
         d="m 140.7842,563.7759 c -22.71096,12.97239 -0.76333,30.73344 12.9717,39.26471 19.51713,11.42969 42.68978,14.08263 64.70353,16.0829 44.62126,-3.8092 86.22601,-23.04582 130.90452,-27.06336 12.18896,-5.30407 40.71169,4.366 39.33079,-15.46608 -13.42891,-11.44997 -35.07123,-7.37511 -50.63032,-16.96857 -16.77903,-7.40707 -34.56768,-9.80994 -52.5795,-11.70047 -36.60365,-4.95659 -73.73547,-2.02435 -110.31658,1.29089 -14.75509,4.93684 -44.73883,0.55752 -47.73014,18.64998 4.40731,-1.49426 8.86699,-2.82892 13.346,-4.09 z"
         id="path22"
         inkscape:connector-curvature="0" />
      <path
         style="fill:none;stroke:#CCB5A9;stroke-opacity:1"
         d="m 201.918,548.9248 c 1.44105,-9.91715 23.76892,-39.41556 18.45092,-17.03298 4.69732,16.77096 -4.55188,17.07808 -18.45092,17.03298 z"
         id="path26"
         inkscape:connector-curvature="0" />
      <path
         style="fill:none;stroke:#CCB5A9;stroke-opacity:1"
         d="m 360.124,567.5845 c 25.75442,0.33507 -11.67475,-11.29968 -18.4664,-15.70667 -10.95813,-6.80122 -15.63494,-17.03941 -28.43842,-4.51812 -15.44651,7.84835 3.01611,8.25716 9.8946,10.75636 12.33674,3.15614 24.67348,6.31229 37.01022,9.46843 z"
         id="path30"
         inkscape:connector-curvature="0" />
      <path
         style="fill:none;stroke:#CCB5A9;stroke-opacity:1"
         d="m 375.168,587.9185 c 20.31944,0.3713 29.79932,22.07867 46.52479,30.36461 7.35651,5.76124 31.35825,13.46355 14.96119,0.56291 -8.71215,-14.59404 -26.77897,-23.49021 -30.8066,-40.06168 3.95595,-15.92505 19.06318,-27.17304 29.05685,-40.00246 20.69702,-12.72645 -17.88014,-2.29786 -23.67158,6.51213 -11.80641,12.97646 -27.99726,21.64792 -40.12369,31.13098 -1.35032,4.05565 -0.5588,9.85475 4.05904,11.49351 z"
         id="path34"
         inkscape:connector-curvature="0" />
      <path
         style="fill:none;stroke:#CCB5A9;stroke-opacity:1"
         d="m 210.0596,614.4751 c -1.09917,31.37308 17.84927,59.40218 39.09704,80.77917 3.53027,3.81899 12.41126,8.80954 4.40251,1.7079 -14.47291,-14.96099 -29.65955,-32.01015 -32.52531,-53.3919 7.66103,8.65717 14.19191,20.31289 22.72006,29.0907 7.93318,8.84167 17.08792,16.77318 27.72189,22.19192 -7.52949,-6.90576 -16.82484,-11.85618 -22.82536,-20.42693 -9.24411,-10.44497 -18.33561,-21.46934 -23.50548,-34.5835 8.13218,7.30809 13.96131,17.09211 22.59933,24.07289 11.11822,10.25096 24.14908,18.89279 38.86216,22.90324 -23.93724,-10.92674 -46.97441,-29.19731 -57.9326,-52.91287 16.93767,17.21016 35.81804,34.19797 59.85803,40.3524 6.32304,1.93762 11.25741,2.22205 1.93376,-0.71386 -23.66939,-8.10247 -45.14221,-23.47292 -59.27687,-44.24604 18.67325,14.84655 37.56011,31.80246 62.02918,35.63486 6.26399,1.45569 20.41815,2.40099 5.88887,0.16825 -24.88455,-5.28802 -48.38464,-18.76002 -63.97976,-39.0727 22.17531,18.40956 50.13565,30.75089 79.15537,31.57038 -27.4479,-4.26884 -55.58407,-13.63831 -75.41882,-33.96016 22.33948,10.50232 43.51572,26.20553 69.1033,27.10028 7.07619,1.10438 12.96337,0.13133 2.62256,-0.8318 -24.63278,-4.16599 -49.97686,-13.30236 -66.71138,-32.71951 -3.26568,-8.90431 -19.79656,-0.55451 -28.04087,-2.55096 -1.92659,0.0526 -3.85797,0.0225 -5.77761,-0.16176 z"
         id="path38"
         inkscape:connector-curvature="0" />
      <path
         style="fill:none;stroke:#CCB5A9;stroke-opacity:1"
         d="m 246.1396,613.8047 c 19.50284,24.18612 43.64517,-4.05384 66.48982,-6.25454 20.26314,-7.44211 42.52894,-6.65204 63.01899,-12.56632 -13.14109,-7.78034 -32.71008,-3.49044 -48.50344,-1.55175 -27.5689,4.19592 -54.69931,11.13984 -81.00537,20.37261 z"
         id="path42"
         inkscape:connector-curvature="0" />
    </g>
  </g>
</svg>
