<?xml version="1.0" encoding="UTF-8" standalone="no"?>
<!-- Created with Inkscape (http://www.inkscape.org/) -->

<svg
   xmlns:dc="http://purl.org/dc/elements/1.1/"
   xmlns:cc="http://creativecommons.org/ns#"
   xmlns:rdf="http://www.w3.org/1999/02/22-rdf-syntax-ns#"
   xmlns:svg="http://www.w3.org/2000/svg"
   xmlns="http://www.w3.org/2000/svg"
   xmlns:sodipodi="http://sodipodi.sourceforge.net/DTD/sodipodi-0.dtd"
   xmlns:inkscape="http://www.inkscape.org/namespaces/inkscape"
   width="351.16592"
   height="206.17462"
   id="svg6726"
   version="1.1"
   inkscape:version="0.48.4 r9939"
   sodipodi:docname="2.svg">
  <defs
     id="defs6728" />
  <sodipodi:namedview
     id="base"
     pagecolor="#ffffff"
     bordercolor="#666666"
     borderopacity="1.0"
     inkscape:pageopacity="0.0"
     inkscape:pageshadow="2"
     inkscape:zoom="0.35"
     inkscape:cx="175.58297"
     inkscape:cy="103.08731"
     inkscape:document-units="px"
     inkscape:current-layer="layer1"
     showgrid="false"
     inkscape:window-width="501"
     inkscape:window-height="414"
     inkscape:window-x="1"
     inkscape:window-y="24"
     inkscape:window-maximized="0"
     fit-margin-top="0"
     fit-margin-left="0"
     fit-margin-right="0"
     fit-margin-bottom="0" />
  <metadata
     id="metadata6731">
    <rdf:RDF>
      <cc:Work
         rdf:about="">
        <dc:format>image/svg+xml</dc:format>
        <dc:type
           rdf:resource="http://purl.org/dc/dcmitype/StillImage" />
        <dc:title />
      </cc:Work>
    </rdf:RDF>
  </metadata>
  <g
     inkscape:label="Layer 1"
     inkscape:groupmode="layer"
     id="layer1"
     transform="translate(-199.41703,-429.27488)">
    <g
       transform="matrix(1.25,0,0,-1.25,160.50364,1068.9111)"
       id="g6517"
       style="fill:none;stroke:#CCB5A9;stroke-opacity:1">
      <path
         inkscape:connector-curvature="0"
         id="path186"
         style="fill:none;stroke:#CCB5A9;stroke-opacity:1"
         d="m 36.6104,409.9976 c -1.392,1.093 -3.876,2.286 -4.373,2.384 -0.497,0.1 -0.497,0.299 -0.596,1.094 -0.099,0.795 0.497,2.98 1.49,2.783 -1.092,0.893 -1.192,2.584 -0.993,3.379 0.199,0.795 0.696,2.384 1.093,3.875 0.398,1.492 0.914,4.61 2.187,7.155 0.894,1.79 3.18,4.174 5.862,7.354 2.684,3.181 12.765,14.546 19.281,18.982 9.341,6.361 20.869,10.137 34.385,13.119 13.419,2.96 36.373,4.173 45.417,4.968 9.043,0.796 9.364,2.211 14.211,0 5.664,-2.583 23.155,-10.831 35.38,-18.087 12.223,-7.254 22.061,-13.913 29.614,-18.285 7.554,-4.373 8.448,-4.274 12.522,-4.573 4.075,-0.297 10.038,-0.197 12.124,0.498 2.088,0.695 5.168,-17.094 -0.596,-16.299 -5.763,0.796 -15.006,-0.497 -20.671,-2.981 -5.664,-2.485 -36.572,-27.627 -50.286,-33.193 -13.715,-5.565 -15.702,-8.348 -18.783,-7.95 -3.08,0.397 -15.654,4.375 -20.87,6.062 -3.378,1.093 -5.664,1.093 -7.851,1.093 -2.186,0 -14.271,-1.486 -31.503,2.187 -12.124,2.584 -18.584,4.968 -22.659,5.963 -4.074,0.994 -11.627,4.373 -14.409,5.266 -2.783,0.895 -11.032,3.181 -13.715,4.175 -2.683,0.993 -7.95,5.068 -8.746,5.863 -0.795,0.795 -2.249,2.099 -1.987,3.279 0.199,0.895 1.888,1.391 2.583,1.491 0.697,0.1 1.889,0.398 1.889,0.398" />
      <path
         inkscape:connector-curvature="0"
         id="path190"
         style="fill:none;stroke:#CCB5A9;stroke-opacity:1"
         d="m 97.7925,383.332 c -0.292,-0.416 1.225,-8.065 6.147,-13.75 0.393,-0.451 0.762,-0.496 0.9,0.013 0.138,0.507 0.449,0.457 0.902,0.587 0.455,0.129 0.495,1.12 0.616,1.708 0.121,0.587 0.233,0.928 0.703,0.977 0.471,0.049 0.213,0.434 0.292,0.934 0.079,0.502 0.315,2.006 0.56,2.279 0.246,0.272 0.383,0.779 0.553,1.125 0.17,0.348 0.619,0.805 0.226,1.258 -0.392,0.452 -4.901,3.436 -5.856,3.994 -0.954,0.56 -4.67,1.406 -5.043,0.875" />
      <path
         style="fill:none;stroke:#CCB5A9;stroke-opacity:1"
         d="m 119.4932,473.2031 c 0.5456,3.62023 4.05111,-1.08295 0,0 z"
         id="path194"
         inkscape:connector-curvature="0" />
      <path
         style="fill:none;stroke:#CCB5A9;stroke-opacity:1"
         d="m 123.7173,473.7002 c 0.5453,3.61956 4.05003,-1.08233 0,0 z"
         id="path198"
         inkscape:connector-curvature="0" />
      <path
         style="fill:none;stroke:#CCB5A9;stroke-opacity:1"
         d="m 127.8662,473.7275 c -0.0625,3.78423 4.78421,-0.5426 0,0 z"
         id="path202"
         inkscape:connector-curvature="0" />
      <path
         style="fill:none;stroke:#CCB5A9;stroke-opacity:1"
         d="m 132.2886,474.0757 c -0.0615,3.78438 4.78454,-0.54426 0,0 z"
         id="path206"
         inkscape:connector-curvature="0" />
      <path
         style="fill:none;stroke:#CCB5A9;stroke-opacity:1"
         d="m 136.9468,474.4624 c 0.41816,3.64406 3.94933,-0.64935 0,0 z"
         id="path210"
         inkscape:connector-curvature="0" />
      <path
         style="fill:none;stroke:#CCB5A9;stroke-opacity:1"
         d="m 142.3604,474.8193 c 0.22293,3.78128 4.80598,-0.60126 0,0 z"
         id="path214"
         inkscape:connector-curvature="0" />
      <path
         style="fill:none;stroke:#CCB5A9;stroke-opacity:1"
         d="m 146.7812,475.2705 c 0.11464,3.45629 4.61911,-0.0664 0,0 z"
         id="path218"
         inkscape:connector-curvature="0" />
      <path
         inkscape:connector-curvature="0"
         id="path222"
         style="fill:none;stroke:#CCB5A9;stroke-opacity:1"
         d="m 146.4497,474.9419 c 3.727,0.746 5.73,1.854 7.006,2.907 8.125,6.708 23.511,19.217 26.609,21.317 9.491,6.435 18.815,8.824 30.187,11.926 0.82,0.224 2.907,0.224 0.373,-0.895 -2.534,-1.118 -18.41,-7.751 -23.851,-12.447 -5.441,-4.696 -8.348,-8.124 -9.467,-9.615 -1.117,-1.49 -1.713,-3.652 -2.086,-4.248 -0.373,-0.597 -0.895,-1.491 -1.044,-2.758 -0.149,-1.267 0.075,-3.951 0.075,-4.472 0,-0.523 0.447,-2.46 0.969,-2.758 0.521,-0.299 1.267,-0.448 1.714,-1.118 0.447,-0.672 1.118,-1.64 1.863,-1.789 0.746,-0.15 1.566,0.149 2.087,-0.373 0.522,-0.522 0.895,-1.863 1.715,-2.087 0.82,-0.223 2.459,-0.149 2.981,-0.596 0.522,-0.448 1.225,-1.525 1.863,-1.938 1.267,-0.821 2.535,-0.149 3.131,-0.521 0.596,-0.373 1.704,-1.752 2.459,-2.46 1.193,-1.118 1.342,0 2.236,-0.596 0.895,-0.597 1.391,-1.68 2.46,-2.535 1.864,-1.49 2.46,-0.298 3.056,-0.746 0.597,-0.447 1.485,-2.052 2.385,-2.906 1.416,-1.342 2.162,0 3.056,-0.745 0.895,-0.746 1.062,-1.889 1.789,-2.535 1.342,-1.192 2.535,-0.595 3.503,-1.341 0.969,-0.745 1.267,-2.161 2.162,-2.833 0.894,-0.67 1.714,-0.297 2.459,-0.819 0.746,-0.522 1.044,-1.715 2.162,-2.311 1.118,-0.597 2.385,0 3.354,-0.746 0.969,-0.745 1.192,-1.863 1.938,-2.235 0.745,-0.373 2.013,0 2.608,-0.373 0.597,-0.373 1.119,-1.64 2.311,-2.385 1.192,-0.746 1.789,-0.149 2.311,-0.821 0.522,-0.67 0.447,-1.117 0.969,-1.565 0.522,-0.446 1.118,-0.67 1.49,-1.118 0.373,-0.447 -9.465,-0.149 -8.124,-1.714" />
      <path
         inkscape:connector-curvature="0"
         id="path226"
         style="fill:none;stroke:#CCB5A9;stroke-opacity:1"
         d="m 147.5679,380.2822 c 0.672,-0.493 5.292,-3.875 8.646,-7.603 3.354,-3.726 18.686,-21.347 32.796,-25.267 1.341,-0.372 3.652,-0.074 0.745,1.565 -2.907,1.641 -11.926,13.79 -12.522,15.802 -0.597,2.013 -0.224,2.236 -0.82,3.504 -0.596,1.267 -1.267,3.204 -0.671,4.1 0.597,0.892 0.745,0.967 0.969,1.788 0.224,0.82 -0.075,1.491 0.522,1.937 0.596,0.448 2.758,1.939 3.28,2.162 0.522,0.224 0.241,1.105 0.522,1.491 1.192,1.639 4.993,2.311 5.366,2.758 0.373,0.447 0.149,1.192 0.969,1.863 0.82,0.671 3.205,1.417 3.727,1.863 0.521,0.448 0.372,0.97 1.192,1.491 0.82,0.522 4.025,2.012 4.472,2.459 0.447,0.447 0.895,1.342 1.342,1.715 0.447,0.373 4.173,1.192 4.695,1.789 0.522,0.596 0.298,1.491 1.118,1.937 0.403,0.22 1.461,1.059 2.46,1.342 1.036,0.294 2.01,0.033 2.162,0.298 0.298,0.523 0.074,1.566 1.043,2.237 0.969,0.67 2.683,1.64 3.578,1.64 0.894,0 1.118,0.67 1.267,1.118 0.149,0.447 1.565,1.863 2.31,2.011 0.746,0.149 1.268,-0.297 1.641,0.075 0.372,0.373 0.372,1.044 0.894,1.416 0.522,0.373 0.819,0.522 0.819,0.522 0,0 1.119,0.596 1.715,0.671 0.596,0.075 1.043,-0.149 1.118,0.149 0.075,0.298 0.522,1.193 0.969,1.416 0.447,0.224 2.012,0.746 2.46,0.82 0.446,0.075 0.894,1.118 1.192,1.342 0.298,0.224 1.267,0.373 1.64,0.522 0.372,0.149 0.298,0.595 0.596,1.044 0.298,0.446 0.671,1.416 1.789,1.565 1.118,0.148 1.714,0.223 2.236,0.595 0.522,0.373 -0.596,0.373 -1.416,0.373 -0.82,0 -9.69,0.15 -6.336,2.683 -19.304,-7.453 -39.354,-20.422 -47.255,-24.522 -7.9,-4.1 -32.348,-11.851 -31.23,-12.671" />
      <path
         inkscape:connector-curvature="0"
         id="path230"
         style="fill:none;stroke:#CCB5A9;stroke-opacity:1"
         d="m 96.3623,383.8604 c -0.466,-0.35 -0.506,-7.428 4.174,-13.044 0.373,-0.447 0.82,-0.521 1.118,-0.074 0.298,0.447 0.671,0.373 1.267,0.447 0.596,0.074 0.895,0.969 1.193,1.49 0.298,0.522 0.521,0.821 1.118,0.821 0.596,0 0.372,0.373 0.596,0.82 0.224,0.446 0.895,1.788 1.267,2.012 0.373,0.224 0.671,0.671 0.969,0.968 0.298,0.299 0.969,0.672 0.596,1.12 -0.372,0.446 -5.217,3.576 -6.26,4.173 -1.044,0.596 -5.442,1.714 -6.038,1.267" />
      <path
         inkscape:connector-curvature="0"
         id="path234"
         style="fill:none;stroke:#CCB5A9;stroke-opacity:1"
         d="m 226.1274,432.9043 c 9.686,0.27 12.716,0.087 15.653,1.491 3.429,1.639 12.075,7.602 18.782,15.205 6.709,7.602 29.218,27.727 35.628,31.603 6.41,3.875 9.988,4.174 11.032,4.323 1.043,0.149 1.043,-0.746 0.595,-1.193 -0.446,-0.447 -7.9,-5.664 -8.646,-6.708 -0.745,-1.043 -3.57,-6.459 -8.794,-12.671 -5.516,-6.559 -10.424,-21.646 -17.292,-27.578 -3.28,-2.832 -3.28,-5.367 -3.28,-6.112 0,-0.745 0.298,-2.236 0.447,-3.279 0.149,-1.043 -0.447,-5.069 -0.298,-5.963 0.149,-0.894 1.044,-2.385 2.982,-5.068 1.937,-2.684 19.975,-28.323 24,-32.945 4.024,-4.621 7.155,-6.41 9.242,-7.304 2.087,-0.895 4.472,-1.49 5.068,-2.385 0.596,-0.895 0.298,-1.045 -0.447,-1.045 -0.745,0 -5.814,-1.191 -17.143,4.025 -11.329,5.219 -36.373,29.666 -43.379,35.479 -7.007,5.814 -8.199,5.368 -11.031,5.963 -2.833,0.597 -11.33,1.342 -12.82,1.044 -1.491,-0.298 -5.665,12.969 -0.299,13.118" />
    </g>
  </g>
</svg>
