<?xml version="1.0" encoding="UTF-8" standalone="no"?>
<!-- Created with Inkscape (http://www.inkscape.org/) -->

<svg
   xmlns:dc="http://purl.org/dc/elements/1.1/"
   xmlns:cc="http://creativecommons.org/ns#"
   xmlns:rdf="http://www.w3.org/1999/02/22-rdf-syntax-ns#"
   xmlns:svg="http://www.w3.org/2000/svg"
   xmlns="http://www.w3.org/2000/svg"
   xmlns:sodipodi="http://sodipodi.sourceforge.net/DTD/sodipodi-0.dtd"
   xmlns:inkscape="http://www.inkscape.org/namespaces/inkscape"
   width="314.62094"
   height="147.53665"
   id="svg6822"
   version="1.1"
   inkscape:version="0.48.4 r9939"
   sodipodi:docname="3.svg">
  <defs
     id="defs6824" />
  <sodipodi:namedview
     id="base"
     pagecolor="#ffffff"
     bordercolor="#666666"
     borderopacity="1.0"
     inkscape:pageopacity="0.0"
     inkscape:pageshadow="2"
     inkscape:zoom="0.35"
     inkscape:cx="157.31048"
     inkscape:cy="73.768361"
     inkscape:document-units="px"
     inkscape:current-layer="layer1"
     showgrid="false"
     inkscape:window-width="501"
     inkscape:window-height="414"
     inkscape:window-x="1"
     inkscape:window-y="24"
     inkscape:window-maximized="0"
     fit-margin-top="1"
     fit-margin-left="1"
     fit-margin-right="1"
     fit-margin-bottom="1" />
  <metadata
     id="metadata6827">
    <rdf:RDF>
      <cc:Work
         rdf:about="">
        <dc:format>image/svg+xml</dc:format>
        <dc:type
           rdf:resource="http://purl.org/dc/dcmitype/StillImage" />
        <dc:title />
      </cc:Work>
    </rdf:RDF>
  </metadata>
  <g
     inkscape:label="Layer 1"
     inkscape:groupmode="layer"
     id="layer1"
     transform="translate(-217.68952,-458.5939)">
    <g
       transform="matrix(1.25,0,0,-1.25,-183.59169,1066.0152)"
       id="g6532"
       style="fill:none;stroke:#CCB5A9;stroke-opacity:1;stroke-width:1px">
      <path
         vector-effect="non-scaling-stroke"
         style="fill:none;stroke:#CCB5A9;stroke-opacity:1;stroke-width:1px"
         d="m 336.2651,410.0269 c -2.57476,6.60248 -17.39906,10.02123 -8.25063,16.84825 11.99459,18.57656 34.91594,25.91184 55.94296,27.63941 17.31835,1.59193 34.79333,2.94221 52.16959,1.84565 19.37442,-6.36934 38.14535,-14.34424 56.99613,-22.08802 9.1075,-4.13165 19.12396,-5.07866 29.0072,-4.59525 5.08806,0.20205 11.99199,-4.60203 3.22819,-5.95588 -9.01102,-1.58629 -18.66006,-1.28224 -26.95335,-5.91465 -16.05577,-7.90689 -32.4369,-15.09383 -48.66402,-22.61485 -8.40951,-2.57235 -15.95308,5.66715 -24.67759,3.88856 -25.16469,-0.20698 -50.68291,-5.76529 -75.55463,0.32701 -8.86291,2.84379 -20.06401,0.78825 -27.18398,7.24202 2.74923,3.68314 9.92948,1.15571 13.94013,3.37775 z"
         id="path162"
         inkscape:connector-curvature="0" />
      <path
         vector-effect="non-scaling-stroke"
         style="fill:none;stroke:#CCB5A9;stroke-opacity:1;stroke-width:1px"
         d="m 406.4307,455.3179 c 1.66035,4.82081 4.35907,16.15833 9.217,9.911 2.37785,-3.26158 5.62258,-5.60246 8.41237,-8.24888 -3.81575,-1.52627 -12.24602,-1.02487 -17.62937,-1.66212 z"
         id="path166"
         inkscape:connector-curvature="0" />
      <path
         vector-effect="non-scaling-stroke"
         style="fill:none;stroke:#CCB5A9;stroke-opacity:1;stroke-width:1px"
         d="m 428.9609,454.8882 c 9.83777,0.27568 10.08741,13.4312 16.56207,18.80322 3.43819,3.99994 10.87392,12.14876 14.42293,10.79578 -6.21667,-6.98415 -8.14819,-17.73887 -3.85613,-25.78338 5.39571,-5.01231 12.00601,-7.70384 17.26913,-11.21462 5.35559,-0.88259 10.0414,-3.79583 15.394,-5.49275 5.59814,-2.02216 11.38793,-4.67427 17.38194,-5.98481 2.17777,-1.76768 12.5893,-3.546 3.63064,-3.67954 -7.6492,-3.73853 -15.69,1.44463 -23.89433,3.67622 -18.94768,6.37013 -37.74252,13.17997 -56.91025,18.87988 z"
         id="path170"
         inkscape:connector-curvature="0" />
      <path
         vector-effect="non-scaling-stroke"
         style="fill:none;stroke:#CCB5A9;stroke-opacity:1;stroke-width:1px"
         d="m 440.5889,399.4561 c 8.1869,-6.15104 11.24122,-16.73811 19.62469,-22.80232 2.64929,-3.06132 14.9807,-10.09252 14.79731,-6.39968 -5.6377,5.24238 -15.38293,13.75613 -9.382,21.935 4.50438,6.87644 11.92575,7.90368 17.92975,11.87562 6.47128,2.73447 12.54293,5.80432 18.81263,8.75438 3.6142,2.10692 18.83823,7.74002 6.52487,5.7395 -5.58971,1.07109 -8.82982,3.58714 -15.32333,-0.0164 -16.59137,-5.62726 -32.87014,-12.18698 -49.85841,-16.55186 -0.90094,-0.56503 -3.95755,-0.96347 -3.12551,-2.53427 z"
         id="path174"
         inkscape:connector-curvature="0" />
      <path
         vector-effect="non-scaling-stroke"
         style="fill:none;stroke:#CCB5A9;stroke-opacity:1;stroke-width:1px"
         d="m 384.9253,398.3823 c 2.94575,-7.27605 7.15798,-19.86829 14.072,-21.257 0.28573,6.77093 8.13677,21.81846 -4.04675,19.94417 -3.40102,-0.35695 -6.87551,1.54886 -10.02525,1.31283 z"
         id="path178"
         inkscape:connector-curvature="0" />
      <path
         vector-effect="non-scaling-stroke"
         style="fill:none;stroke:#CCB5A9;stroke-opacity:1;stroke-width:1px"
         d="m 512.769,428.7578 c 10.3928,-1.45506 16.16801,8.91635 22.596,15.164 9.04594,9.75041 19.40246,21.51632 33.71694,21.84981 8.75714,-1.57902 -9.91775,-2.57136 -9.502,-8.83629 -5.10795,-7.95143 -11.01962,-15.43194 -15.81836,-23.54758 -3.7488,-11.79994 7.27743,-19.46957 12.99004,-28.17211 2.62997,-6.09209 11.88644,-11.63137 13.39838,-15.90083 -16.32582,1.12198 -26.43625,15.7359 -37.98912,25.47073 -5.12254,6.27287 -12.75561,8.68768 -19.91472,9.33164 -0.27312,1.20705 -1.36509,4.14557 0.52284,4.64063 z"
         id="path182"
         inkscape:connector-curvature="0" />
    </g>
  </g>
</svg>
