<?xml version="1.0" encoding="UTF-8" standalone="no"?>
<!-- Created with Inkscape (http://www.inkscape.org/) -->

<svg
   xmlns:dc="http://purl.org/dc/elements/1.1/"
   xmlns:cc="http://creativecommons.org/ns#"
   xmlns:rdf="http://www.w3.org/1999/02/22-rdf-syntax-ns#"
   xmlns:svg="http://www.w3.org/2000/svg"
   xmlns="http://www.w3.org/2000/svg"
   xmlns:sodipodi="http://sodipodi.sourceforge.net/DTD/sodipodi-0.dtd"
   xmlns:inkscape="http://www.inkscape.org/namespaces/inkscape"
   width="411.28647"
   height="167.52606"
   id="svg6885"
   version="1.1"
   inkscape:version="0.48.4 r9939"
   sodipodi:docname="4.svg">
  <defs
     id="defs6887" />
  <sodipodi:namedview
     id="base"
     pagecolor="#ffffff"
     bordercolor="#666666"
     borderopacity="1.0"
     inkscape:pageopacity="0.0"
     inkscape:pageshadow="2"
     inkscape:zoom="0.35"
     inkscape:cx="205.64323"
     inkscape:cy="83.763061"
     inkscape:document-units="px"
     inkscape:current-layer="layer1"
     showgrid="false"
     inkscape:window-width="501"
     inkscape:window-height="414"
     inkscape:window-x="1"
     inkscape:window-y="24"
     inkscape:window-maximized="0"
     fit-margin-top="0"
     fit-margin-left="0"
     fit-margin-right="0"
     fit-margin-bottom="0" />
  <metadata
     id="metadata6890">
    <rdf:RDF>
      <cc:Work
         rdf:about="">
        <dc:format>image/svg+xml</dc:format>
        <dc:type
           rdf:resource="http://purl.org/dc/dcmitype/StillImage" />
        <dc:title />
      </cc:Work>
    </rdf:RDF>
  </metadata>
  <g
     inkscape:label="Layer 1"
     inkscape:groupmode="layer"
     id="layer1"
     transform="translate(-169.35677,-448.59919)">
    <g
       transform="matrix(1.25,0,0,-1.25,-613.69936,1039.2224)"
       id="g6540"
       style="fill:none;stroke:#CCB5A9;stroke-opacity:1">
      <path
         style="fill:none;stroke:#CCB5A9;stroke-opacity:1"
         d="m 645.5674,390.0996 c -7.60508,1.26507 -18.47977,11.37183 -4.94919,13.22089 17.9084,4.84202 34.09935,14.48202 50.66792,22.5642 14.61323,8.35849 30.54037,14.52303 47.49007,15.58062 24.71598,4.44319 48.89165,-4.52998 73.45192,-5.2393 12.15282,1.37983 23.16964,-6.14552 34.86291,-8.60091 10.8263,-4.5275 22.6457,-7.6787 35.61875,-6.03057 12.59687,-1.04085 30.23508,18.92563 36.09437,-1.10391 5.89046,-12.61727 -3.08448,-28.68188 -17.89475,-22.35802 -13.07604,0.049 -26.01981,-3.92436 -38.179,-8.484 0.0328,-4.86164 -17.65501,-11.90571 -25.24555,-9.86219 -11.5875,0.017 -22.90941,-2.37895 -34.07159,-5.1541 -19.91429,-3.24659 -40.14352,-1.83352 -59.98602,1.01035 -12.90264,-1.35543 -25.32947,2.83257 -38.02184,3.92994 -12.5358,-1.69529 -24.95648,2.266 -37.35286,3.35447 -13.64334,3.33941 -29.23421,1.87957 -41.07936,10.51894 -0.73803,10.12524 13.16893,-5.7668 18.59422,-3.34641 z"
         id="path346"
         inkscape:connector-curvature="0" />
      <path
         style="fill:none;stroke:#CCB5A9;stroke-opacity:1"
         d="m 753.6934,440.4512 c 7.23408,11.38187 14.54497,23.55494 25.65112,31.54737 2.9939,-5.44692 8.00442,-10.12393 6.90369,-17.95014 3.6486,-4.75979 6.69678,-13.69884 9.39294,-17.60876 -13.4618,-1.92104 -27.3904,0.1159 -40.59771,3.00982 l -1.11623,0.52006 -0.23381,0.48165 z"
         id="path350"
         inkscape:connector-curvature="0" />
      <path
         style="fill:none;stroke:#CCB5A9;stroke-opacity:1"
         d="m 809.8408,433.7021 c 17.10508,5.57942 27.97976,21.62299 43.915,29.312 1.25648,-6.16837 2.71051,-11.49186 4.623,-17.181 -0.41588,-8.27036 10.06943,-9.38301 11.401,-16.10238 -6.5643,-9.3008 -21.56193,-2.62086 -31.45454,-2.0539 -9.49283,1.9173 -19.25824,3.10272 -28.48446,6.02528 z"
         id="path354"
         inkscape:connector-curvature="0" />
      <path
         style="fill:none;stroke:#CCB5A9;stroke-opacity:1"
         d="m 889.0996,421.5967 c 21.23127,6.49581 29.66225,29.96603 48.378,40.122 15.52856,-0.35624 4.09802,-21.40036 3.454,-30.272 -7.74704,-6.59474 -5.83049,-16.37464 2.56962,-20.97386 9.22016,-2.61281 18.37122,-21.43973 3.96652,-22.52343 -14.73283,-0.2134 -27.48589,8.66973 -42.05896,9.49037 -10.58861,0.54469 -25.64543,2.3725 -22.13514,17.21729 0.57041,3.11966 2.74582,5.95979 5.82596,6.93963 z"
         id="path358"
         inkscape:connector-curvature="0" />
      <path
         style="fill:none;stroke:#CCB5A9;stroke-opacity:1"
         d="m 837.4629,382.1846 c 8.60698,-9.56203 23.40067,-20.82861 30.73662,-22.29538 12.41738,-4.52962 -0.0134,14.40228 7.28543,20.19886 3.15246,13.42646 -18.27633,8.31727 -26.28309,9.45046 -3.65743,-0.81291 -14.3772,-1.10877 -11.73896,-7.35394 z"
         id="path362"
         inkscape:connector-curvature="0" />
      <path
         style="fill:none;stroke:#CCB5A9;stroke-opacity:1"
         d="m 736.4541,375.9521 c 4.95159,-11.77863 8.79809,-24.99161 17.75,-34.37225 6.03439,-7.80281 11.79518,3.8235 12.99,10.22125 8.798,9.14482 5.62853,23.72336 -8.73147,23.31316 -6.58653,1.3186 -16.9038,5.08703 -22.00853,0.83784 z"
         id="path366"
         inkscape:connector-curvature="0" />
    </g>
  </g>
</svg>
