<?xml version="1.0" encoding="UTF-8" standalone="no"?>
<!-- Created with Inkscape (http://www.inkscape.org/) -->

<svg
   xmlns:dc="http://purl.org/dc/elements/1.1/"
   xmlns:cc="http://creativecommons.org/ns#"
   xmlns:rdf="http://www.w3.org/1999/02/22-rdf-syntax-ns#"
   xmlns:svg="http://www.w3.org/2000/svg"
   xmlns="http://www.w3.org/2000/svg"
   xmlns:sodipodi="http://sodipodi.sourceforge.net/DTD/sodipodi-0.dtd"
   xmlns:inkscape="http://www.inkscape.org/namespaces/inkscape"
   width="278.66379"
   height="100.43806"
   id="svg6961"
   version="1.1"
   inkscape:version="0.48.4 r9939"
   sodipodi:docname="5.svg">
  <defs
     id="defs6963" />
  <sodipodi:namedview
     id="base"
     pagecolor="#ffffff"
     bordercolor="#666666"
     borderopacity="1.0"
     inkscape:pageopacity="0.0"
     inkscape:pageshadow="2"
     inkscape:zoom="0.35"
     inkscape:cx="139.33189"
     inkscape:cy="50.21903"
     inkscape:document-units="px"
     inkscape:current-layer="layer1"
     showgrid="false"
     inkscape:window-width="501"
     inkscape:window-height="414"
     inkscape:window-x="1"
     inkscape:window-y="24"
     inkscape:window-maximized="0"
     fit-margin-top="1"
     fit-margin-left="1"
     fit-margin-right="1"
     fit-margin-bottom="1" />
  <metadata
     id="metadata6966">
    <rdf:RDF>
      <cc:Work
         rdf:about="">
        <dc:format>image/svg+xml</dc:format>
        <dc:type
           rdf:resource="http://purl.org/dc/dcmitype/StillImage" />
        <dc:title />
      </cc:Work>
    </rdf:RDF>
  </metadata>
  <g
     inkscape:label="Layer 1"
     inkscape:groupmode="layer"
     id="layer1"
     transform="translate(-235.66811,-482.14315)">
    <g
       transform="matrix(1.25,0,0,-1.25,24.261074,920.81532)"
       id="g6548"
       style="fill:none;stroke:#CCB5A9;stroke-opacity:1;stroke-width:1px">
      <path
         vector-effect="non-scaling-stroke"
         inkscape:connector-curvature="0"
         id="path370"
         style="fill:none;stroke:#CCB5A9;stroke-opacity:1;stroke-width:1px"
         d="m 183.687,303.9844 c -2.472,3.653 -6.496,8.299 -8.383,9.431 -0.403,0.241 -0.651,0.557 -0.161,1.047 0.323,0.323 1.129,0.967 1.854,0.565 -0.483,0.725 0.403,1.047 1.37,1.45 0.967,0.403 4.478,1.999 7.819,3.224 2.418,0.887 3.646,1.072 4.674,1.451 1.532,0.564 28.595,9.368 49.873,10.98 21.279,1.612 51.666,-1.209 66.899,-4.917 15.234,-3.708 28.775,-7.898 34.095,-8.543 5.319,-0.645 9.51,0.484 11.767,1.128 2.257,0.645 14.186,-1.692 13.863,-9.349 -0.322,-7.657 -6.37,-10.897 -14.508,-9.27 -5.239,1.048 -9.859,0.762 -12.654,0.08 -3.304,-0.805 -10.72,-3.384 -12.09,-4.512 -1.371,-1.129 -15.637,-8.141 -18.135,-7.578 -2.499,0.565 -0.846,0.556 -3.144,1.049 -1.128,0.242 -2.925,0.498 -4.997,-0.242 -9.027,-3.224 -33.038,-5.37 -55.695,-3.627 -4.192,0.322 -7.316,-0.744 -11.185,-0.422 -3.869,0.323 -25.308,3.385 -26.034,4.917 -1.451,-0.403 -4.997,0.08 -6.609,0.403 -1.612,0.322 -2.499,0.805 -3.627,0.967 -1.129,0.162 -12.161,2.837 -18.91,6.037 -6.749,3.199 -9.12,4.904 -9.294,6.346 -0.174,1.443 0.107,2.108 0.921,1.998 0.814,-0.108 5.97,-1.515 7.213,-2.13 1.619,-0.056 5.078,-0.483 5.078,-0.483" />
      <path
         vector-effect="non-scaling-stroke"
         inkscape:connector-curvature="0"
         id="path374"
         style="fill:none;stroke:#CCB5A9;stroke-opacity:1;stroke-width:1px"
         d="m 176.0889,313.7471 c -0.385,-1.004 -0.416,-2.384 -0.506,-3.021 0.534,0.901 0.929,2.555 1.487,2.476 0.56,-0.078 -0.981,0.545 -0.981,0.545" />
      <path
         vector-effect="non-scaling-stroke"
         inkscape:connector-curvature="0"
         id="path378"
         style="fill:none;stroke:#CCB5A9;stroke-opacity:1;stroke-width:1px"
         d="m 176.4536,313.1982 c -0.385,-1.004 -0.292,-2.075 -0.381,-2.714 0.534,0.902 0.804,2.248 1.362,2.17 0.559,-0.078 -0.981,0.544 -0.981,0.544" />
      <path
         vector-effect="non-scaling-stroke"
         inkscape:connector-curvature="0"
         id="path382"
         style="fill:none;stroke:#CCB5A9;stroke-opacity:1;stroke-width:1px"
         d="m 173.3735,305.998 c 0.049,0.488 0.506,0.922 0.506,0.922 l 0.228,-1.036 -0.734,0.114 z" />
      <path
         vector-effect="non-scaling-stroke"
         inkscape:connector-curvature="0"
         id="path386"
         style="fill:none;stroke:#CCB5A9;stroke-opacity:1;stroke-width:1px"
         d="m 175.1245,305.1416 c 0.049,0.488 0.506,0.921 0.506,0.921 l 0.228,-1.035 -0.734,0.114 z" />
      <path
         vector-effect="non-scaling-stroke"
         inkscape:connector-curvature="0"
         id="path390"
         style="fill:none;stroke:#CCB5A9;stroke-opacity:1;stroke-width:1px"
         d="m 176.7798,304.5225 c 0.049,0.487 0.506,0.921 0.506,0.921 l 0.228,-1.036 -0.734,0.115 z" />
      <path
         vector-effect="non-scaling-stroke"
         inkscape:connector-curvature="0"
         id="path394"
         style="fill:none;stroke:#CCB5A9;stroke-opacity:1;stroke-width:1px"
         d="m 240.0889,331.0039 c 0.726,2.579 6.166,13.044 7.173,14.052 0.377,0.376 0.108,-0.269 0.161,-0.457 0.054,-0.188 0.915,-1.236 1.747,-0.779 0.618,1.37 3.815,5.373 4.379,5.723 0.564,0.349 0.027,-0.35 0.054,-0.726 0.027,-0.376 1.424,-1.209 2.096,-1.021 0.671,0.188 1.477,1.021 1.8,1.236 0.322,0.215 0.161,-0.188 0.08,-0.484 -0.08,-0.295 0.78,-2.175 1.935,-1.88 1.156,0.295 1.317,0.215 1.639,0.483 0.322,0.269 0.295,-0.107 0.187,-0.59 -0.106,-0.484 0.377,-2.446 1.452,-2.096 1.074,0.349 1.182,0.511 1.316,0.617 0.134,0.108 -0.081,-0.563 -0.134,-0.886 -0.054,-0.322 0.457,-1.317 1.316,-1.478 0.86,-0.161 0.994,-0.054 1.183,0.161 0.187,0.216 0.107,-0.43 0.08,-0.671 -0.027,-0.242 1.504,-3.358 2.445,-3.278 0.94,0.081 1.021,0.322 1.263,0.457 0.242,0.135 -0.24,-0.545 -0.081,-0.887 0.94,-2.015 2.955,-3.196 3.654,-3.17 0.699,0.028 0.913,0.028 1.235,0.215 0.323,0.188 -0.038,-0.54 -0.053,-0.914 -0.054,-1.343 2.74,-3.492 2.74,-3.492 l -37.667,-0.135 z" />
      <path
         vector-effect="non-scaling-stroke"
         inkscape:connector-curvature="0"
         id="path398"
         style="fill:none;stroke:#CCB5A9;stroke-opacity:1;stroke-width:1px"
         d="m 280.228,330.6016 c 0.699,2.042 9.672,12.412 12.037,12.843 2.364,0.428 2.794,0.321 3.331,0.106 0.537,-0.215 1.505,0.376 2.095,0 0.592,-0.376 1.72,-0.267 2.204,-0.591 0.483,-0.322 1.686,0.221 2.472,-0.377 1.343,-1.019 2.112,-0.247 3.17,-1.127 0.967,-0.806 2.131,-0.287 2.633,-0.752 0.752,-0.7 2.418,-0.269 3.062,-0.914 0.645,-0.645 2.472,-0.484 3.171,-0.967 0.699,-0.484 2.08,-0.279 2.579,-0.752 1.075,-1.022 2.257,-0.699 2.74,-1.183 0.484,-0.483 1.344,-0.215 2.15,-0.752 0.806,-0.537 1.827,-0.107 2.472,-0.752 0.644,-0.645 2.095,-0.645 2.74,-1.236 0.644,-0.591 1.665,-0.43 2.418,-1.128 0.752,-0.698 1.397,-0.269 2.687,-1.183 0.49,-0.346 1.612,-0.214 2.31,-0.966 0.699,-0.752 2.042,-0.484 2.418,-1.075 0.376,-0.591 1.29,-0.215 2.526,-1.452 0.57,-0.569 1.666,-0.215 2.257,-1.181 0.591,-0.967 1.289,-0.484 1.665,-1.398 0.189,-0.457 1.021,-0.376 1.505,-1.289 0.272,-0.514 0.43,-0.645 0.806,-1.344 0.376,-0.698 0.86,-1.02 0.215,-1.772 -0.644,-0.753 -4.621,-1.774 -4.89,-2.418 -0.269,-0.645 0.269,-1.291 0.269,-1.291 0,0 -43.901,12.413 -61.042,12.951" />
      <path
         vector-effect="non-scaling-stroke"
         inkscape:connector-curvature="0"
         id="path402"
         style="fill:none;stroke:#CCB5A9;stroke-opacity:1;stroke-width:1px"
         d="m 307.9116,290.5146 c 2.052,-2.332 13.919,-11.263 18.616,-11.727 2.593,-0.255 3.672,1.187 3.729,1.831 0.095,1.074 0.928,0.63 0.814,1.393 -0.114,0.763 0.894,0.858 0.779,1.622 -0.114,0.762 0.787,1.01 0.622,1.542 -0.164,0.531 0.446,1.003 0.44,1.614 -0.006,0.613 0.82,0.782 0.644,1.39 -0.176,0.609 0.95,1.625 0.898,2.542 -0.052,0.917 0.525,1.617 0.372,2.072 -0.154,0.456 0.157,1.228 -0.455,1.905 -0.612,0.675 -5.239,1.428 -5.793,1.723 -0.556,0.295 -0.516,0.603 -0.415,1.063 0.102,0.461 -20.251,-6.97 -20.251,-6.97" />
      <path
         vector-effect="non-scaling-stroke"
         inkscape:connector-curvature="0"
         id="path406"
         style="fill:none;stroke:#CCB5A9;stroke-opacity:1;stroke-width:1px"
         d="m 348.8999,318.4307 c 3.521,0.635 4.03,0.887 9.35,3.788 5.32,2.901 22.331,11.6 28.291,11.848 1.934,0.081 2.982,-3.304 2.579,-6.045 -0.403,-2.74 1.37,-10.074 1.612,-15.153 0.242,-5.078 -1.37,-15.959 -1.37,-18.296 0,-2.337 0.323,-8.141 -4.594,-7.577 -4.917,0.565 -24.584,10.64 -28.533,12.575 -3.949,1.933 -6.448,2.82 -9.027,2.981 -2.58,0.162 -3.225,14.992 1.692,15.879" />
      <path
         vector-effect="non-scaling-stroke"
         inkscape:connector-curvature="0"
         id="path410"
         style="fill:none;stroke:#CCB5A9;stroke-opacity:1;stroke-width:1px"
         d="m 237.2471,286.8936 c 1.76,-3.368 9.203,-11.154 12.116,-12.136 0.801,-0.271 1.035,0.209 1.486,-0.032 0.45,-0.241 4.338,-3.681 7.306,-2.644 1.028,0.36 0.98,2.751 0.897,4.241 -0.083,1.487 0.773,4.898 0.029,7.275 -0.745,2.376 -0.98,3.47 -4.373,3.252 -3.392,-0.219 -6.805,-0.063 -9.005,0.248 -2.2,0.314 -3.183,0.71 -4.227,0.649 -1.043,-0.062 -4.229,-0.853 -4.229,-0.853" />
    </g>
  </g>
</svg>
