<?xml version="1.0" encoding="UTF-8" standalone="no"?>
<!-- Created with Inkscape (http://www.inkscape.org/) -->

<svg
   xmlns:dc="http://purl.org/dc/elements/1.1/"
   xmlns:cc="http://creativecommons.org/ns#"
   xmlns:rdf="http://www.w3.org/1999/02/22-rdf-syntax-ns#"
   xmlns:svg="http://www.w3.org/2000/svg"
   xmlns="http://www.w3.org/2000/svg"
   xmlns:sodipodi="http://sodipodi.sourceforge.net/DTD/sodipodi-0.dtd"
   xmlns:inkscape="http://www.inkscape.org/namespaces/inkscape"
   width="232.01141"
   height="125.44556"
   id="svg7601"
   version="1.1"
   inkscape:version="0.48.4 r9939"
   sodipodi:docname="6.svg">
  <defs
     id="defs7603" />
  <sodipodi:namedview
     id="base"
     pagecolor="#ffffff"
     bordercolor="#666666"
     borderopacity="1.0"
     inkscape:pageopacity="0.0"
     inkscape:pageshadow="2"
     inkscape:zoom="0.35"
     inkscape:cx="116.00571"
     inkscape:cy="62.72278"
     inkscape:document-units="px"
     inkscape:current-layer="layer1"
     showgrid="false"
     fit-margin-top="1"
     fit-margin-left="1"
     fit-margin-right="1"
     fit-margin-bottom="1"
     inkscape:window-width="501"
     inkscape:window-height="414"
     inkscape:window-x="1"
     inkscape:window-y="24"
     inkscape:window-maximized="0" />
  <metadata
     id="metadata7606">
    <rdf:RDF>
      <cc:Work
         rdf:about="">
        <dc:format>image/svg+xml</dc:format>
        <dc:type
           rdf:resource="http://purl.org/dc/dcmitype/StillImage" />
        <dc:title />
      </cc:Work>
    </rdf:RDF>
  </metadata>
  <g
     inkscape:label="Layer 1"
     inkscape:groupmode="layer"
     id="layer1"
     transform="translate(-258.99429,-469.6394)">
    <g
       transform="matrix(1.25,0,0,-1.25,-322.47829,937.7949)"
       id="g7574">
      <path
         vector-effect="non-scaling-stroke"
         style="fill:none;stroke:#CCB5A9;stroke-opacity:1;stroke-width:1px"
         d="m 595.9717,318.6709 c 11.77861,1.09801 20.04825,-8.85158 29.28462,-14.46562 5.30763,-3.5651 11.05818,-6.73938 17.39838,-7.96438 -1.88812,6.96033 -9.41358,10.92636 -12.95971,17.17236 -8.02777,5.01914 -5.36707,13.45368 1.45863,17.84926 6.00483,6.24057 12.03549,12.4619 18.33358,18.40901 -8.3624,1.55597 -15.20075,-4.92372 -22.38428,-8.09152 -7.30563,-4.16805 -14.29028,-9.39286 -22.66803,-11.18998 -7.26816,3.09514 -15.84678,-4.70326 -9.60953,-11.39728 l 1.14634,-0.32185 z"
         id="path254"
         inkscape:connector-curvature="0" />
      <g
         style="fill:none;stroke:#CCB5A9;stroke-opacity:1;stroke-width:1px"
         id="g6561">
        <path
           vector-effect="non-scaling-stroke"
           inkscape:connector-curvature="0"
           id="path238"
           d="m 472.959,310.0088 c -9.85057,-0.0541 -6.93021,12.55567 -1.39257,16.57075 14.32927,16.97737 35.35138,26.68371 56.75975,31.12632 6.56183,0.66325 13.76829,5.47804 19.78809,1.25837 13.87527,-6.28083 27.45917,-13.21895 40.02678,-21.87175 5.72975,-5.07648 12.47094,-7.67472 20.15714,-6.84207 8.35199,-2.77161 3.76882,-15.0435 -4.73945,-12.19091 -8.08305,1.70094 -13.49369,-5.57837 -19.84976,-9.09145 -10.48256,-6.28165 -20.47007,-13.51705 -31.72998,-18.40926 -7.93883,0.19702 -15.63743,2.69029 -23.62317,2.55167 -15.54573,1.01281 -31.23198,2.9876 -45.71354,9.05121 -4.46846,2.31529 -15.31144,2.88574 -14.94244,8.23083 1.73612,0.42826 3.56077,0.0331 5.25915,-0.38371 z"
           style="fill:none;stroke:#CCB5A9;stroke-opacity:1;stroke-width:1px" />
        <path
           vector-effect="non-scaling-stroke"
           inkscape:connector-curvature="0"
           id="path242"
           d="m 505.9043,295.6641 c -0.93837,-4.25426 5.81208,-15.82798 6.71425,-6.15304 0.58527,3.69745 -3.21957,6.7272 -6.71425,6.15304 z"
           style="fill:none;stroke:#CCB5A9;stroke-opacity:1;stroke-width:1px" />
        <path
           vector-effect="non-scaling-stroke"
           inkscape:connector-curvature="0"
           id="path246"
           d="m 504.3389,295.7559 c -1.1608,-4.28752 4.94398,-15.08411 5.92661,-5.33695 0.40463,3.18242 -2.72458,6.26277 -5.92661,5.33695 z"
           style="fill:none;stroke:#CCB5A9;stroke-opacity:1;stroke-width:1px" />
        <path
           vector-effect="non-scaling-stroke"
           inkscape:connector-curvature="0"
           id="path250"
           d="m 544.1982,292.9287 c 9.91919,-3.97174 15.90775,-14.14246 26.18387,-17.46075 -3.62053,4.46234 -8.68794,12.21258 -2.65709,16.88581 4.24313,4.76174 9.46473,8.15304 14.51773,11.87588 5.07678,3.28471 10.18619,6.68185 15.82922,9.01968 7.65415,4.90993 -6.79418,4.25104 -9.36995,1.34531 -14.71119,-7.44838 -29.73778,-14.29941 -44.50378,-21.66593 z"
           style="fill:none;stroke:#CCB5A9;stroke-opacity:1;stroke-width:1px" />
        <path
           vector-effect="non-scaling-stroke"
           inkscape:connector-curvature="0"
           id="path258"
           d="m 537.3916,358.9404 c 10.22658,3.36276 18.00735,11.87214 28.629,14.284 -0.47654,-5.18927 -11.60069,-10.70819 -2.962,-15.75255 7.60065,-5.35386 15.94037,-9.49986 23.92375,-14.28245 3.95734,-3.63241 13.52806,-6.85104 14.90082,-10.12172 -6.27686,-4.13266 -12.80515,0.80009 -19.17653,2.29187 -16.14514,5.54498 -31.97836,12.76084 -45.31504,23.58085 z"
           style="fill:none;stroke:#CCB5A9;stroke-opacity:1;stroke-width:1px" />
      </g>
    </g>
  </g>
</svg>
