<?xml version="1.0" encoding="UTF-8" standalone="no"?>
<!-- Created with Inkscape (http://www.inkscape.org/) -->

<svg
   xmlns:dc="http://purl.org/dc/elements/1.1/"
   xmlns:cc="http://creativecommons.org/ns#"
   xmlns:rdf="http://www.w3.org/1999/02/22-rdf-syntax-ns#"
   xmlns:svg="http://www.w3.org/2000/svg"
   xmlns="http://www.w3.org/2000/svg"
   xmlns:sodipodi="http://sodipodi.sourceforge.net/DTD/sodipodi-0.dtd"
   xmlns:inkscape="http://www.inkscape.org/namespaces/inkscape"
   version="1.1"
   width="295.20023"
   height="87.919189"
   id="svg2"
   inkscape:version="0.48.4 r9939"
   sodipodi:docname="hitori.svg">
  <sodipodi:namedview
     pagecolor="#ffffff"
     bordercolor="#666666"
     borderopacity="1"
     objecttolerance="10"
     gridtolerance="10"
     guidetolerance="10"
     inkscape:pageopacity="0"
     inkscape:pageshadow="2"
     inkscape:window-width="1186"
     inkscape:window-height="795"
     id="namedview3311"
     showgrid="false"
     fit-margin-top="1"
     fit-margin-left="1"
     fit-margin-right="1"
     fit-margin-bottom="1"
     inkscape:zoom="1.9439928"
     inkscape:cx="171.2905"
     inkscape:cy="54.856964"
     inkscape:window-x="303"
     inkscape:window-y="105"
     inkscape:window-maximized="0"
     inkscape:current-layer="svg2" />
  <defs
     id="defs4" />
  <metadata
     id="metadata7">
    <rdf:RDF>
      <cc:Work
         rdf:about="">
        <dc:format>image/svg+xml</dc:format>
        <dc:type
           rdf:resource="http://purl.org/dc/dcmitype/StillImage" />
        <dc:title />
      </cc:Work>
    </rdf:RDF>
  </metadata>
  <g
     style="fill:#332924;fill-opacity:1;stroke:#332924;stroke-width:1.20000005;stroke-miterlimit:4;stroke-opacity:1;stroke-dasharray:28.80000114, 28.80000114;stroke-dashoffset:0"
     id="g4080"
     transform="translate(-150.05762,-273.77496)">
    <g
       style="font-size:40px;font-style:normal;font-weight:normal;line-height:74.00000095%;letter-spacing:0px;word-spacing:0px;fill:#332924;fill-opacity:1;stroke:#332924;stroke-width:1.20000005;stroke-miterlimit:4;stroke-opacity:1;stroke-dasharray:28.80000114, 28.80000114;stroke-dashoffset:0;font-family:Sans"
       id="text2985">
      <path
         inkscape:connector-curvature="0"
         style="font-size:56px;font-variant:normal;font-stretch:normal;line-height:74.00000095%;fill:#332924;fill-opacity:1;stroke:#332924;stroke-width:1.20000005;stroke-miterlimit:4;stroke-opacity:1;stroke-dasharray:28.80000114, 28.80000114;stroke-dashoffset:0;font-family:HuiFont;-inkscape-font-specification:HuiFont"
         id="path3815"
         d="m 154.28683,297.80191 c -0.85677,-0.72917 -1.71354,-1.45833 -2.57031,-2.1875 -0.43643,-1.64174 1.66109,-2.49928 2.70952,-1.64062 2.73853,-0.067 5.50033,0.13556 8.22398,-0.10392 1.94928,-0.40592 3.91009,-0.67831 5.90528,-0.55233 0.99152,0.23743 1.63267,-0.28693 2.47088,-0.38282 3.09025,-0.0661 6.19892,0.13445 9.27724,-0.1043 3.03093,-0.42096 6.06186,-0.84192 9.09279,-1.26288 0.76454,0.55051 2.41176,1.647 0.4894,1.99241 -4.3102,1.77727 -8.97831,2.72371 -13.64423,2.49196 -0.91933,-0.0858 -1.39734,0.6861 -2.42862,0.38281 -0.85306,0.0663 -1.85247,-0.22066 -2.50568,0.32813 -2.46025,-0.0124 -4.92673,-0.10464 -7.34297,0.44692 -2.20235,0.38969 -4.4081,0.73579 -6.65206,0.59214 -1.00841,0 -2.01681,0 -3.02522,0 z" />
      <path
         inkscape:connector-curvature="0"
         style="font-size:56px;font-variant:normal;font-stretch:normal;line-height:74.00000095%;fill:#332924;fill-opacity:1;stroke:#332924;stroke-width:1.20000005;stroke-miterlimit:4;stroke-opacity:1;stroke-dasharray:28.80000114, 28.80000114;stroke-dashoffset:0;font-family:HuiFont;-inkscape-font-specification:HuiFont"
         id="path3817"
         d="m 157.29465,356.52316 c -0.84889,-0.48324 -1.98185,-0.72544 -2.6649,-1.34941 -0.74464,-2.38684 3.39928,-3.41468 3.84515,-5.84114 3.71024,-7.528 6.60338,-15.49544 8.60881,-23.64077 0,-2.30102 0,-4.60203 0,-6.90305 1.45328,-0.92909 3.36716,-0.78888 4.44518,0.58522 0.35201,0.76086 0.0458,1.82702 0.14857,2.70348 0.0634,1.60657 0.0259,3.20009 -0.54094,4.72502 -0.53062,2.01365 -1.06125,4.02731 -1.59187,6.04096 4.91846,6.2268 10.88628,11.72139 17.70317,15.78072 1.13142,0.005 1.7497,0.47249 1.57669,1.65499 0.35831,1.75617 -2.77515,1.42833 -3.85099,0.93116 -1.0761,-1.00989 -2.53432,-1.97528 -4.15601,-2.83113 -3.28317,-2.17488 -6.56854,-4.5944 -8.68748,-7.97763 -0.72549,-0.84662 -1.11329,-2.17067 -2.40144,-2.22178 -1.2665,-0.48415 -2.50054,-0.93486 -2.45887,0.99095 -1.86155,5.96819 -4.59428,11.67316 -8.17039,16.80554 -0.60156,0.18229 -1.20312,0.36458 -1.80468,0.54687 z" />
    </g>
  </g>
  <g
     style="fill:#332924;fill-opacity:1;stroke:#332924;stroke-width:1.20000005;stroke-miterlimit:4;stroke-opacity:1;stroke-dasharray:28.80000114, 28.80000114;stroke-dashoffset:0"
     id="g4065"
     transform="translate(-156.24119,-289.41575)">
    <path
       inkscape:connector-curvature="0"
       style="font-size:40px;font-style:normal;font-variant:normal;font-weight:normal;font-stretch:normal;line-height:125%;letter-spacing:-1.38px;word-spacing:0px;fill:#332924;fill-opacity:1;stroke:#332924;stroke-width:1.20000005;stroke-miterlimit:4;stroke-opacity:1;stroke-dasharray:28.80000114, 28.80000114;stroke-dashoffset:0;font-family:HuiFont;-inkscape-font-specification:HuiFont"
       id="path3977"
       d="m 220.43466,320.78085 c -0.67369,-0.57493 -1.65342,-1.10652 -1.33299,-2.16662 0.0593,-1.49956 0.5334,-2.97269 0.35322,-4.48242 0.0577,-1.43229 0.62855,-2.83013 0.36616,-4.2754 0.0449,-0.92291 0.35329,-1.82209 0.21228,-2.7558 -0.0677,-0.93055 0.38031,-1.80902 0.19936,-2.74644 0.10756,-0.97049 -0.34069,-1.90235 -0.18316,-2.87241 0.0388,-1.59137 -0.0236,-3.23348 -0.55412,-4.74393 -0.20773,-1.3078 1.5751,-1.8849 2.35706,-0.93793 1.04257,0.36332 0.70029,1.44893 0.71404,2.28161 -0.031,1.30101 0.17732,2.59534 0.4042,3.86407 -0.0257,1.94245 0.11734,3.89979 -0.19227,5.82746 0.87248,-0.0317 1.63665,-0.64035 2.54182,-0.41954 1.44616,0.0988 2.43884,1.40891 3.03593,2.60603 0.55663,1.43495 0.88615,2.97694 0.82317,4.51814 0.0679,1.20098 0.71017,2.25613 1.02797,3.39661 0.27342,0.90734 1.93599,1.25658 1.15653,2.39946 -0.43253,0.88151 -1.60294,0.51516 -2.20777,0.0359 -1.44773,-0.73623 -1.66984,-2.48245 -2.34937,-3.79326 -0.72485,-1.92466 -1.15257,-3.95808 -1.29393,-6.00891 -1.14368,-0.65988 -1.58114,0.87761 -1.86758,1.68487 -1.11209,2.49863 -1.56502,5.27571 -1.45274,8.00263 -0.58594,0.19531 -1.17187,0.39062 -1.75781,0.58593 z" />
    <path
       inkscape:connector-curvature="0"
       style="font-size:40px;font-style:normal;font-variant:normal;font-weight:normal;font-stretch:normal;line-height:125%;letter-spacing:-1.38px;word-spacing:0px;fill:#332924;fill-opacity:1;stroke:#332924;stroke-width:1.20000005;stroke-miterlimit:4;stroke-opacity:1;stroke-dasharray:28.80000114, 28.80000114;stroke-dashoffset:0;font-family:HuiFont;-inkscape-font-specification:HuiFont"
       id="path3979"
       d="m 243.3906,320.74179 c -0.49741,-0.67336 -1.44129,-1.25665 -1.17187,-2.22754 0,-2.46061 0,-4.92122 0,-7.38183 0.47116,-0.79689 0.0349,-1.77292 0.2054,-2.64426 0.10507,-0.96264 -0.39816,-2.33793 0.56991,-2.96673 0.95078,-0.3979 2.20921,0.1555 2.39427,1.21661 0.35975,0.90173 -0.51248,1.7235 -0.23565,2.63168 0.11428,0.87209 -0.23063,1.73279 -0.0817,2.57817 -0.18438,0.83932 -0.12536,1.6819 -0.10961,2.53422 -1e-5,1.17749 -0.0431,2.3577 -0.20356,3.52531 0.41582,0.72025 0.14536,1.65105 0.12812,2.42114 -0.36101,0.402 -1.00392,0.38013 -1.49526,0.31323 z m 1.36719,-20 c -1.35801,-0.0874 -2.34481,-1.33577 -2.55542,-2.60848 -0.50583,-0.6477 -0.28309,-1.58729 0.62726,-1.59497 0.78678,-0.16307 1.67231,0.58795 2.04182,1.21131 0.0255,0.70664 0.27765,1.33526 0.93774,1.59784 0.35064,0.64014 -0.34647,1.53708 -1.0514,1.3943 z" />
    <path
       inkscape:connector-curvature="0"
       style="font-size:40px;font-style:normal;font-variant:normal;font-weight:normal;font-stretch:normal;line-height:125%;letter-spacing:-1.38px;word-spacing:0px;fill:#332924;fill-opacity:1;stroke:#332924;stroke-width:1.20000005;stroke-miterlimit:4;stroke-opacity:1;stroke-dasharray:28.80000114, 28.80000114;stroke-dashoffset:0;font-family:HuiFont;-inkscape-font-specification:HuiFont"
       id="path3981"
       d="m 262.55748,321.17148 c -1.02347,-0.24642 -1.22194,-1.63733 -1.34118,-2.50882 -0.062,-3.60315 -0.01,-7.20761 -0.026,-10.81149 -1.43944,-0.14933 -2.85496,0.23478 -4.15248,0.82236 -1.07027,0.23675 -1.81488,-1.06407 -2.52721,-1.72236 -0.10941,-1.96607 2.37577,-1.03547 3.57072,-1.49907 1.13202,-0.0274 2.56851,0.33031 3.37228,-0.70935 0.32471,-0.62506 0.0463,-1.3461 0.12731,-2.02539 0,-1.03612 0,-2.07225 0,-3.10838 -0.42806,-1.0147 -0.0743,-2.18928 -0.20495,-3.27676 0.0326,-1.55313 0.0411,-3.1145 -0.0816,-4.65927 0.6362,-1.326 2.80544,-0.41863 3.09582,0.72467 0.27292,1.08911 -0.24746,2.09474 -0.26377,3.1884 -0.0435,1.44248 0.0232,2.89361 -0.0108,4.32941 0.1677,1.30129 -0.0985,2.62581 0.008,3.94814 -0.19576,1.13603 1.63544,1.05647 2.409,0.79792 1.01306,-0.31802 2.11088,-0.47268 2.9961,0.23236 0.98786,0.79846 0.61563,2.0918 -0.63125,2.23193 -0.89953,0.27202 -1.86489,0.0843 -2.79531,0.1397 -0.5306,0 -1.06121,0 -1.59181,0 -0.93771,0.82398 -0.51074,2.16264 -0.57284,3.24847 -0.24048,1.06883 0.0941,1.98529 -0.037,3.07696 -0.17994,1.27832 0.0446,2.56839 0.0544,3.86419 0.11339,1.24887 0.38482,2.4756 0.55546,3.71663 -0.65096,-1.7e-4 -1.30258,3.3e-4 -1.95312,-2.5e-4 z" />
    <path
       inkscape:connector-curvature="0"
       style="font-size:40px;font-style:normal;font-variant:normal;font-weight:normal;font-stretch:normal;line-height:125%;letter-spacing:-1.38px;word-spacing:0px;fill:#332924;fill-opacity:1;stroke:#332924;stroke-width:1.20000005;stroke-miterlimit:4;stroke-opacity:1;stroke-dasharray:28.80000114, 28.80000114;stroke-dashoffset:0;font-family:HuiFont;-inkscape-font-specification:HuiFont"
       id="path3983"
       d="m 279.6931,320.89804 c -1.49673,-0.21382 -3.12905,-0.90178 -3.73441,-2.38398 -0.3727,-0.7008 -0.98712,-1.33625 -0.79684,-2.18924 0.0658,-1.47808 -0.1444,-2.98923 0.13061,-4.44228 0.70011,-2.73502 2.1309,-5.25492 4.01001,-7.35169 1.13236,-0.51629 2.71271,-1.2501 3.83456,-0.36386 0.7408,0.43131 1.56144,0.78568 1.88749,1.65537 1.3323,2.17853 2.36008,4.66865 2.51769,7.22293 -0.65072,3.47861 -3.29625,6.63512 -6.71142,7.65255 -0.37334,0.0959 -0.7542,0.16189 -1.13769,0.2002 z m 1.5625,-3.16406 c 1.71792,-1.01872 3.20079,-2.74028 3.55469,-4.73706 -0.0477,-1.05936 0.19936,-2.17622 -0.38661,-3.13064 -0.45707,-1.12743 -0.91414,-2.25487 -1.37121,-3.3823 -0.64565,0.0688 -1.45459,-0.25113 -1.83848,0.44088 -0.85992,0.88171 -1.82683,1.69018 -2.23135,2.90263 -0.50826,1.13272 -1.27805,2.23711 -1.08642,3.53061 0.0839,0.89818 -0.131,1.80041 -0.15918,2.67535 0.31391,0.68957 0.46643,1.53705 0.87972,2.12937 0.58292,0.37096 1.15904,0.38108 1.72733,-0.0237 0.30384,-0.13504 0.60767,-0.27008 0.91151,-0.40512 z" />
    <path
       inkscape:connector-curvature="0"
       style="font-size:40px;font-style:normal;font-variant:normal;font-weight:normal;font-stretch:normal;line-height:125%;letter-spacing:-1.38px;word-spacing:0px;fill:#332924;fill-opacity:1;stroke:#332924;stroke-width:1.20000005;stroke-miterlimit:4;stroke-opacity:1;stroke-dasharray:28.80000114, 28.80000114;stroke-dashoffset:0;font-family:HuiFont;-inkscape-font-specification:HuiFont"
       id="path3985"
       d="m 296.32092,320.58554 c -0.60898,-0.76901 -1.88274,-1.32706 -1.57821,-2.51141 0.004,-0.99274 -0.36266,-1.94957 -0.19964,-2.94725 -0.11287,-1.20252 -0.23663,-2.37521 0.1108,-3.56577 0.0971,-1.15194 -0.36823,-2.24621 -0.54615,-3.37274 -0.25185,-1.18011 -0.5037,-2.36022 -0.75555,-3.54033 0.72853,-0.80415 2.04824,-0.39478 2.41858,0.56262 0.95108,0.82462 0.18117,2.64714 1.32632,3.09285 0.82406,-0.19732 1.46671,-0.89735 1.92976,-1.6001 0.6867,-0.85597 1.71951,-1.37603 2.62971,-1.97158 0.87734,-0.0593 2.04234,-0.37999 2.76404,0.35744 0.86022,0.69657 2.09185,1.35173 1.8375,2.66909 0.0979,1.06358 -0.97435,3.09712 -1.93768,1.63287 -1.04545,-0.30811 -0.67201,-2.3855 -2.02007,-1.71123 -2.00136,1.56138 -4.05548,3.37051 -4.88599,5.85628 -0.49778,1.84518 0.37489,3.66811 0.33167,5.5113 0.23359,0.89342 -0.43954,1.86504 -1.42509,1.53796 z" />
    <path
       inkscape:connector-curvature="0"
       style="font-size:40px;font-style:normal;font-variant:normal;font-weight:normal;font-stretch:normal;line-height:125%;letter-spacing:-1.38px;word-spacing:0px;fill:#332924;fill-opacity:1;stroke:#332924;stroke-width:1.20000005;stroke-miterlimit:4;stroke-opacity:1;stroke-dasharray:28.80000114, 28.80000114;stroke-dashoffset:0;font-family:HuiFont;-inkscape-font-specification:HuiFont"
       id="path3987"
       d="m 317.8706,320.74179 c -0.7036,-0.68319 -1.40445,-1.58716 -1.17188,-2.63142 0,-2.32599 0,-4.65197 0,-6.97795 0.43888,-1.40083 0.0991,-2.8842 0.17024,-4.31685 -0.18989,-1.04746 1.12106,-1.79152 1.99091,-1.27728 0.84374,0.26605 1.18341,1.20061 0.99903,2.0093 -0.17813,0.89768 -0.2777,1.80318 -0.24943,2.71935 -0.10192,1.81812 -0.22201,3.6358 -0.18817,5.45749 0.028,1.05892 -0.33693,2.11228 0.0283,3.13362 0.11417,0.71015 0.0462,1.81173 -0.83726,1.96364 -0.24922,0.0367 -0.50287,-0.008 -0.74171,-0.0799 z m 1.36719,-20 c -1.43144,-0.0465 -2.25808,-1.44224 -2.63926,-2.66151 -0.56954,-0.88338 0.45607,-1.92161 1.36952,-1.46791 1.02759,0.24187 1.55083,1.23328 1.69039,2.15334 0.735,0.48696 1.05237,1.62779 -0.007,1.92828 -0.13205,0.0456 -0.27423,0.0646 -0.41334,0.0478 z" />
    <path
       inkscape:connector-curvature="0"
       style="font-size:40px;font-style:normal;font-variant:normal;font-weight:normal;font-stretch:normal;line-height:125%;letter-spacing:-1.38px;word-spacing:0px;fill:#332924;fill-opacity:1;stroke:#332924;stroke-width:1.20000005;stroke-miterlimit:4;stroke-opacity:1;stroke-dasharray:28.80000114, 28.80000114;stroke-dashoffset:0;font-family:HuiFont;-inkscape-font-specification:HuiFont"
       id="path3989"
       d="m 333.13123,320.07773 c -0.39063,-0.19531 -0.78125,-0.39063 -1.17188,-0.58594 -0.19531,-0.78125 -0.39063,-1.5625 -0.58594,-2.34375 0.27469,-0.87486 0.54901,-2.0423 1.31121,-2.53906 0.99523,0 1.99045,0 2.98567,0 0.39062,0.32552 0.78125,0.65104 1.17187,0.97656 0.0969,1.59756 -0.78147,3.10087 -1.87833,4.1935 -0.55497,0.32545 -1.23286,0.13199 -1.8326,0.29869 z" />
    <path
       inkscape:connector-curvature="0"
       style="font-size:40px;font-style:normal;font-variant:normal;font-weight:normal;font-stretch:normal;line-height:125%;letter-spacing:-1.38px;word-spacing:0px;fill:#332924;fill-opacity:1;stroke:#332924;stroke-width:1.20000005;stroke-miterlimit:4;stroke-opacity:1;stroke-dasharray:28.80000114, 28.80000114;stroke-dashoffset:0;font-family:HuiFont;-inkscape-font-specification:HuiFont"
       id="path3991"
       d="m 350.1106,320.3121 c -2.39462,-1.78282 -0.86743,-5.21989 -1.32474,-7.72896 0.468,-2.5011 -1.72249,-5.83626 -0.10318,-7.70002 3.07762,-0.48576 2.21248,3.65841 2.71937,5.32142 1.96277,-0.46203 3.37362,-3.60538 6.06044,-2.76069 2.29554,0.66583 2.1071,3.64129 3.11391,5.41466 0.30708,2.02202 2.40988,4.21549 2.28337,5.77256 -2.7761,0.63172 -5.13195,-2.77408 -4.92565,-5.35195 0.34246,-2.75338 -2.69893,-4.38061 -3.93256,-1.47879 -1.70079,2.16288 -2.28373,5.02022 -2.09058,7.72171 -0.13736,0.7899 -1.12987,1.11714 -1.80038,0.79006 z" />
    <path
       inkscape:connector-curvature="0"
       style="font-size:40px;font-style:normal;font-variant:normal;font-weight:normal;font-stretch:normal;line-height:125%;letter-spacing:-1.38px;word-spacing:0px;fill:#332924;fill-opacity:1;stroke:#332924;stroke-width:1.20000005;stroke-miterlimit:4;stroke-opacity:1;stroke-dasharray:28.80000114, 28.80000114;stroke-dashoffset:0;font-family:HuiFont;-inkscape-font-specification:HuiFont"
       id="path3993"
       d="m 371.69936,321.01523 c -3.38009,-0.72775 -4.49582,-4.68084 -4.28118,-7.71538 -0.0922,-3.08695 0.0195,-6.94214 2.94154,-8.78509 3.1131,-1.39477 5.44629,2.02968 7.30049,3.98584 0.98087,2.77703 -2.7972,4.05895 -4.7225,4.97295 -3.37975,-0.0263 -3.49888,5.48668 -0.0404,4.8475 2.27989,-0.88194 4.381,-2.14869 6.65056,-3.04981 3.11555,-0.60501 0.13548,3.16628 -1.35581,3.41785 -2.01171,1.12814 -4.19587,2.01159 -6.49266,2.32614 z m 0.97656,-10.27344 c 0.76823,-0.52083 1.53646,-1.04167 2.30469,-1.5625 -0.45894,-2.7279 -4.44413,-3.01211 -4.41607,0.13204 -1.07643,2.02638 0.71298,2.72928 2.11138,1.43046 l 0,0 z" />
    <path
       inkscape:connector-curvature="0"
       style="font-size:40px;font-style:normal;font-variant:normal;font-weight:normal;font-stretch:normal;line-height:125%;letter-spacing:-1.38px;word-spacing:0px;fill:#332924;fill-opacity:1;stroke:#332924;stroke-width:1.20000005;stroke-miterlimit:4;stroke-opacity:1;stroke-dasharray:28.80000114, 28.80000114;stroke-dashoffset:0;font-family:HuiFont;-inkscape-font-specification:HuiFont"
       id="path3995"
       d="m 392.89748,321.17148 c -2.231,-1.48388 -1.07452,-4.55914 -1.3648,-6.7774 -0.27336,-2.10585 0.53552,-5.06556 -0.4065,-6.63409 -2.09464,0.19036 -5.67963,2.16926 -6.10876,-1.30288 1.51426,-2.43167 6.20996,0.76531 6.89479,-2.52563 0.19044,-2.95059 -0.34967,-5.8566 -0.1766,-8.80441 -0.33926,-1.7509 -0.17211,-5.47903 2.36146,-3.52155 1.66534,1.93612 -0.10838,4.28842 0.36122,6.51999 0.003,2.12207 0.047,4.24438 0.001,6.36628 1.8685,1.05736 5.32818,-1.53093 5.99574,1.56215 -0.66611,1.68581 -2.79226,1.12638 -4.25367,1.21129 -2.25116,-0.60853 -2.03483,2.47376 -1.98722,3.96291 0.0567,2.7593 -0.17667,5.52508 0.35117,8.26544 0.74136,2.30216 -0.11026,1.56308 -1.66826,1.6779 z" />
    <path
       inkscape:connector-curvature="0"
       style="font-size:40px;font-style:normal;font-variant:normal;font-weight:normal;font-stretch:normal;line-height:125%;letter-spacing:-1.38px;word-spacing:0px;fill:#332924;fill-opacity:1;stroke:#332924;stroke-width:1.20000005;stroke-miterlimit:4;stroke-opacity:1;stroke-dasharray:28.80000114, 28.80000114;stroke-dashoffset:0;font-family:HuiFont;-inkscape-font-specification:HuiFont"
       id="path3997"
       d="m 407.61122,320.07773 c -2.59353,-0.68337 -2.13044,-5.99151 0.81416,-5.46892 3.49467,-0.89059 3.41594,3.51084 1.20023,4.95594 -0.57563,0.4279 -1.31367,0.54933 -2.01439,0.51298 z" />
    <path
       inkscape:connector-curvature="0"
       style="font-size:40px;font-style:normal;font-variant:normal;font-weight:normal;font-stretch:normal;line-height:125%;letter-spacing:-1.38px;word-spacing:0px;fill:#332924;fill-opacity:1;stroke:#332924;stroke-width:1.20000005;stroke-miterlimit:4;stroke-opacity:1;stroke-dasharray:28.80000114, 28.80000114;stroke-dashoffset:0;font-family:HuiFont;-inkscape-font-specification:HuiFont"
       id="path3999"
       d="m 425.91873,322.85117 c -2.51892,-3.53992 -0.36358,-8.11136 -0.65479,-12.08438 0.39383,-3.46599 -2.5459,-11.92115 3.58154,-10.00202 4.90691,-3.23741 9.62846,4.92441 5.1461,8.26144 -1.68035,2.96474 -7.89162,1.825 -6.87207,6.39188 -0.31116,2.15615 1.52151,6.70474 -1.20078,7.43308 z m 3.71094,-13.51563 c 3.38568,-0.90182 5.73585,-8.21697 0.24871,-6.5744 -3.15367,0.19045 -4.00298,8.52593 -0.24871,6.5744 z" />
    <path
       inkscape:connector-curvature="0"
       style="font-size:40px;font-style:normal;font-variant:normal;font-weight:normal;font-stretch:normal;line-height:125%;letter-spacing:-1.38px;word-spacing:0px;fill:#332924;fill-opacity:1;stroke:#332924;stroke-width:1.20000005;stroke-miterlimit:4;stroke-opacity:1;stroke-dasharray:28.80000114, 28.80000114;stroke-dashoffset:0;font-family:HuiFont;-inkscape-font-specification:HuiFont"
       id="path4001"
       d="m 447.97623,320.6246 c -2.66938,-2.72905 -1.19319,-6.9756 -1.74275,-10.38174 0.1839,-5.34701 0.89891,-10.69423 0.47547,-16.04797 4.0781,-2.84825 3.07618,4.57774 2.88713,6.7882 -0.2119,6.32111 -1.2802,12.75858 0.1728,19.00315 -0.0351,0.85528 -1.25841,0.71998 -1.79265,0.63836 z" />
  </g>
  <g
     id="g5696"
     transform="translate(-156.24119,-289.41575)">
    <path
       inkscape:connector-curvature="0"
       style="font-size:18px;font-style:normal;font-variant:normal;font-weight:normal;font-stretch:normal;line-height:125%;letter-spacing:-0.88999999px;word-spacing:0px;fill:#332924;fill-opacity:1;stroke:#332924;stroke-width:1;stroke-miterlimit:4;stroke-opacity:1;stroke-dasharray:24, 24;stroke-dashoffset:0;font-family:HuiFont;-inkscape-font-specification:HuiFont"
       id="path5600"
       d="m 219.24878,340.93964 c -0.93723,-0.28357 -0.44603,-1.26298 -0.70314,-1.91602 0.20438,-0.45763 0.0299,-1.0722 0.0879,-1.59047 -0.0347,-0.57075 0.0834,-1.1603 -0.0879,-1.71423 0.20438,-0.45763 0.0299,-1.0722 0.0879,-1.59047 0.10961,-0.47735 -0.003,-0.89391 0.0879,-1.34501 -0.0471,-1.04703 0.10128,-2.11419 -0.0879,-3.14657 0.25058,-0.37566 -0.20176,-1.19514 0.58489,-1.02894 0.54933,-0.10285 1.00513,0.65978 1.55131,0.2817 0.94146,-0.1363 2.00195,-0.0909 2.71756,0.64835 0.42704,0.46632 0.99992,1.03344 0.89429,1.72473 -0.0726,1.47176 -1.15137,2.72848 -2.02808,3.84307 -0.59083,0.93152 -1.75345,1.06708 -2.59497,1.65022 0.0452,1.021 -0.12917,2.06611 0.17579,3.0586 -0.24909,0.36637 0.1913,1.14561 -0.5684,1.09053 l -0.0801,0.0236 -0.0371,0.0109 m 1.56445,-6.08204 c 1.09089,-1.1256 2.24263,-2.41314 2.51367,-4.00781 -0.35718,-0.35524 -0.59195,-0.92961 -1.17982,-0.8719 -0.89543,-0.26059 -2.05442,0.38245 -2.21275,1.30252 0.0654,0.5797 -0.14703,1.04434 -0.0879,1.62145 0.002,0.73557 0.0217,1.47199 -0.0879,2.20185 0.42275,0.1976 0.6906,-0.0516 1.05469,-0.24609" />
    <path
       inkscape:connector-curvature="0"
       style="font-size:18px;font-style:normal;font-variant:normal;font-weight:normal;font-stretch:normal;line-height:125%;letter-spacing:-0.88999999px;word-spacing:0px;fill:#332924;fill-opacity:1;stroke:#332924;stroke-width:1;stroke-miterlimit:4;stroke-opacity:1;stroke-dasharray:24, 24;stroke-dashoffset:0;font-family:HuiFont;-inkscape-font-specification:HuiFont"
       id="path5602"
       d="m 229.15175,340.86932 c -0.42266,-0.36418 -0.63779,-0.80513 -0.52735,-1.36651 0,-0.98591 0,-1.97181 0,-2.95771 0.20438,-0.45763 0.0299,-1.0722 0.0879,-1.59047 -0.0929,-0.4613 0.0777,-1.1516 0.68106,-0.97594 0.55688,0.0275 0.86499,0.72827 0.60533,1.19055 -0.12929,0.49597 0.009,1.05681 -0.12357,1.54473 0.0554,0.44478 -0.0738,0.94205 -0.0203,1.44367 0.0705,0.50799 -0.1363,1.07609 -0.0289,1.54024 0.0399,0.51121 0.23413,1.42046 -0.67425,1.17144 z m 0.61523,-9 c -0.84601,-0.0162 -1.26676,-1.12065 -1.24163,-1.72038 0.4424,-0.39584 0.95728,-0.0721 1.26141,0.28976 -0.10494,0.63916 1.00446,0.8959 0.17798,1.40317 l -0.19775,0.0275" />
    <path
       inkscape:connector-curvature="0"
       style="font-size:18px;font-style:normal;font-variant:normal;font-weight:normal;font-stretch:normal;line-height:125%;letter-spacing:-0.88999999px;word-spacing:0px;fill:#332924;fill-opacity:1;stroke:#332924;stroke-width:1;stroke-miterlimit:4;stroke-opacity:1;stroke-dasharray:24, 24;stroke-dashoffset:0;font-family:HuiFont;-inkscape-font-specification:HuiFont"
       id="path5604"
       d="m 236.83987,340.93964 c -0.87483,-0.0608 -1.56288,-0.64061 -1.8865,-1.42597 -0.32266,-0.5702 -0.0748,-1.29464 -0.15256,-1.93105 0.0247,-1.50892 0.92082,-2.88612 1.86328,-4.00822 0.70854,-0.45941 1.56605,-0.44014 2.19771,0.114 0.87137,1.03442 1.46245,2.4611 1.4893,3.82137 -0.35796,1.66264 -1.76894,3.2388 -3.51123,3.42987 z m 0.70313,-1.42383 c 1.041,-0.5854 1.78894,-1.74627 1.59962,-2.9573 -0.15024,-0.72385 -0.54494,-1.40004 -0.79102,-2.1052 -0.58606,-0.16439 -0.92448,0.26082 -1.27564,0.65568 -0.54582,0.67012 -1.05863,1.54445 -1.04467,2.42916 0.066,0.58605 -0.23462,1.18091 0.11727,1.71619 0.0487,0.60628 0.71948,0.7228 1.13739,0.37571 0.0857,-0.0381 0.17137,-0.0762 0.25705,-0.11424 z" />
    <path
       inkscape:connector-curvature="0"
       style="font-size:18px;font-style:normal;font-variant:normal;font-weight:normal;font-stretch:normal;line-height:125%;letter-spacing:-0.88999999px;word-spacing:0px;fill:#332924;fill-opacity:1;stroke:#332924;stroke-width:1;stroke-miterlimit:4;stroke-opacity:1;stroke-dasharray:24, 24;stroke-dashoffset:0;font-family:HuiFont;-inkscape-font-specification:HuiFont"
       id="path5606"
       d="m 245.61784,341.06268 c -0.45961,-0.12323 -0.60462,-0.78104 -0.61523,-1.21281 0,-1.59378 0,-3.18756 0,-4.78134 -0.74962,-0.10708 -1.42974,0.21957 -2.12696,0.43946 -0.28692,-0.38355 -0.99342,-0.58024 -0.8789,-1.14258 0.26376,-0.52561 0.92736,-0.12093 1.31396,-0.36915 0.63544,-0.0553 1.38979,0.20021 1.8677,-0.35158 0,-0.76172 0,-1.52343 0,-2.28515 -0.20438,-0.45763 -0.0299,-1.0722 -0.0879,-1.59047 -0.0498,-0.64426 0.1054,-1.32178 -0.0879,-1.94275 0.33921,-0.71374 1.52276,-0.15732 1.45803,0.50206 0.0654,0.58312 -0.2535,1.14362 -0.13966,1.74337 0.0465,0.63155 -0.10052,1.2945 0.0879,1.90301 -0.20434,0.45484 -0.0299,1.06657 -0.0879,1.58204 0.60898,0.31628 1.23957,0.0162 1.86328,-0.0879 0.47348,0.12932 0.99635,0.54684 0.80424,1.02171 -0.72992,0.53116 -1.65351,0.2419 -2.49174,0.31423 -0.56047,0.52888 -0.0583,1.37906 -0.35157,2.02148 0.19859,0.42764 0.0663,1.0157 0,1.49415 0.21503,0.45107 -0.012,1.06383 0.16601,1.567 -0.0668,0.3769 0.51559,1.30854 -0.14834,1.17519 -0.18167,0 -0.36334,0 -0.54501,0" />
    <path
       inkscape:connector-curvature="0"
       style="font-size:18px;font-style:normal;font-variant:normal;font-weight:normal;font-stretch:normal;line-height:125%;letter-spacing:-0.88999999px;word-spacing:0px;fill:#332924;fill-opacity:1;stroke:#332924;stroke-width:1;stroke-miterlimit:4;stroke-opacity:1;stroke-dasharray:24, 24;stroke-dashoffset:0;font-family:HuiFont;-inkscape-font-specification:HuiFont"
       id="path5608"
       d="m 252.16339,340.79901 c -0.31957,-0.37432 -0.89225,-0.64381 -0.72071,-1.22156 -0.0382,-0.49138 -0.13372,-0.95904 -0.0879,-1.48524 -0.22903,-0.70572 0.27045,-1.44352 -0.0341,-2.15373 -0.16442,-0.77045 -0.32885,-1.5409 -0.49327,-2.31135 1.47288,-1.19367 1.02889,2.28419 1.95323,1.50288 0.50905,-0.2153 0.56493,-0.75447 1.04367,-0.97778 0.41412,-0.28977 0.80247,-0.66263 1.34916,-0.5251 0.59623,-0.10682 0.92508,0.53309 1.38442,0.80859 0.3074,0.64928 -0.23521,2.15289 -0.89611,1.23165 -0.3857,-0.48164 -0.55553,-1.19211 -1.23524,-0.33737 -0.95482,0.81398 -2.03214,1.8977 -1.82373,3.26274 0.0838,0.67795 0.37966,1.45446 0.0813,2.09089 -0.13495,0.13432 -0.34391,0.15492 -0.52075,0.11536" />
  </g>
  <g
     id="g5703"
     transform="matrix(0.83798588,0,0,0.83798588,-120.22853,-233.77382)">
    <path
       inkscape:connector-curvature="0"
       style="font-size:18px;font-style:normal;font-variant:normal;font-weight:normal;font-stretch:normal;line-height:125%;letter-spacing:-0.88999999px;word-spacing:0px;fill:#a6192a;fill-opacity:1;stroke:#a6192a;stroke-width:1;stroke-miterlimit:4;stroke-opacity:1;stroke-dasharray:24, 24;stroke-dashoffset:0;font-family:HuiFont;-inkscape-font-specification:HuiFont"
       id="path5610"
       d="m 268.84042,331.23651 c -1.31682,-0.61592 -0.70757,-2.16406 -0.84376,-3.28711 0.1233,-0.59064 0.0731,-2.02474 0.99363,-1.32889 0.96708,0.44746 -0.0389,1.53559 0.18411,2.30019 -0.0669,0.73404 -0.0218,1.43827 0.1758,2.15761 -0.16992,0.0527 -0.33985,0.10547 -0.50977,0.1582 z m 2.10938,-0.91406 c -0.71748,-0.47597 -0.51002,-1.31994 -0.42186,-1.99959 -0.0513,-0.77897 0.15604,-1.4508 0.0879,-2.23675 0.75631,-0.44284 1.57812,0.29357 1.22295,1.09508 -0.17522,0.81866 -0.11263,1.69665 -0.17369,2.48123 -0.18973,0.35413 -0.22273,0.69376 -0.71528,0.66003" />
    <path
       inkscape:connector-curvature="0"
       style="font-size:18px;font-style:normal;font-variant:normal;font-weight:normal;font-stretch:normal;line-height:125%;letter-spacing:-0.88999999px;word-spacing:0px;fill:#a6192a;fill-opacity:1;stroke:#a6192a;stroke-width:1;stroke-miterlimit:4;stroke-opacity:1;stroke-dasharray:24, 24;stroke-dashoffset:0;font-family:HuiFont;-inkscape-font-specification:HuiFont"
       id="path5612"
       d="m 280.76487,340.86932 c -1.04079,-0.94523 -0.86204,-2.40662 -0.9668,-3.63001 0.011,-0.84505 0.0113,-1.6255 0.0879,-2.45203 -0.63594,-0.36989 -1.58203,-0.16256 -2.30849,10e-4 -0.57033,0.32614 -1.92839,0.0124 -1.85754,0.89105 0.0278,1.26847 -0.10468,2.55937 0.17578,3.79245 0.34884,1.32355 -1.54712,1.03057 -1.37593,-0.076 0.024,-0.87929 -0.0574,-1.70764 -0.0303,-2.62233 0.214,-0.7838 -0.017,-1.75195 0.1758,-2.54452 0.0885,-0.77968 0.10659,-1.58848 0.0879,-2.41254 0.26582,-0.77587 -0.11941,-1.59171 0,-2.4258 0.86365,-0.23721 1.36251,0.55636 1.23047,1.33161 0.0609,0.75804 0.0237,1.43373 -0.0879,2.17968 -0.33508,1.16623 0.87874,0.88135 1.58386,0.66842 0.77156,-0.0314 1.55046,-0.0311 2.31849,0.0742 0.55263,-0.70977 0.076,-1.73306 0.35157,-2.50493 -0.0488,-0.79114 0.15645,-1.47703 0.0879,-2.27633 0.6915,-0.48163 1.57619,0.3835 1.22044,1.11872 -0.1983,0.97595 -0.17455,1.81206 -0.18333,2.80122 -0.1557,0.70105 -0.0706,1.54492 -0.26368,2.28958 0.0773,1.71236 -0.24427,3.47502 0.37902,5.11192 0.25267,0.71018 -0.15801,0.5052 -0.62512,0.68444" />
    <path
       inkscape:connector-curvature="0"
       style="font-size:18px;font-style:normal;font-variant:normal;font-weight:normal;font-stretch:normal;line-height:125%;letter-spacing:-0.88999999px;word-spacing:0px;fill:#a6192a;fill-opacity:1;stroke:#a6192a;stroke-width:1;stroke-miterlimit:4;stroke-opacity:1;stroke-dasharray:24, 24;stroke-dashoffset:0;font-family:HuiFont;-inkscape-font-specification:HuiFont"
       id="path5614"
       d="m 285.92175,340.86932 c -0.87511,-0.62617 -0.41648,-1.74574 -0.52735,-2.65462 -0.0478,-1.32674 0.15618,-2.54922 0.0879,-3.88445 0.38873,-0.88958 1.76413,-0.0193 1.31474,0.76527 -0.16485,0.73841 -0.069,1.5441 -0.17217,2.23185 0.0219,1.15621 -0.0892,2.24755 0,3.36617 l -0.30762,0.17578 -0.3955,0 z m 0.61523,-9 c -0.82367,0.0138 -1.90944,-1.81067 -0.70313,-1.95117 0.79823,0.24327 0.78516,1.04822 1.23048,1.51173 -0.0287,0.25942 -0.26484,0.4625 -0.52734,0.43945" />
    <path
       inkscape:connector-curvature="0"
       style="font-size:18px;font-style:normal;font-variant:normal;font-weight:normal;font-stretch:normal;line-height:125%;letter-spacing:-0.88999999px;word-spacing:0px;fill:#a6192a;fill-opacity:1;stroke:#a6192a;stroke-width:1;stroke-miterlimit:4;stroke-opacity:1;stroke-dasharray:24, 24;stroke-dashoffset:0;font-family:HuiFont;-inkscape-font-specification:HuiFont"
       id="path5616"
       d="m 294.27784,341.06268 c -0.816,-0.36781 -0.58159,-1.52551 -0.61523,-2.28099 0,-1.23772 0,-2.47544 0,-3.71316 -0.75042,-0.11205 -1.42946,0.22127 -2.12696,0.43946 -0.5297,-0.28217 -1.4296,-1.31418 -0.36031,-1.42383 0.73762,-0.0856 1.50392,-0.0394 2.24501,-0.15348 0.80495,-0.32361 0.25852,-1.39835 0.41806,-2.07047 -0.20884,-1.28895 0.0473,-2.71421 -0.1758,-4.0339 0.68602,-0.93677 1.90876,0.30161 1.4014,1.16199 -0.21964,1.18673 0.0188,2.45219 -0.083,3.5842 -0.3001,0.91061 0.41072,1.4059 1.23879,1.02834 0.64414,-0.30825 1.51593,0.0868 1.5034,0.85244 -0.75303,0.65552 -1.85505,0.13786 -2.64288,0.45353 -0.36485,0.54278 -0.14494,1.44671 -0.1872,2.00741 -0.0483,1.27076 -0.0639,2.46274 0.1988,3.73754 0.31545,0.71516 -0.42921,0.30364 -0.81403,0.4109" />
    <path
       inkscape:connector-curvature="0"
       style="font-size:18px;font-style:normal;font-variant:normal;font-weight:normal;font-stretch:normal;line-height:125%;letter-spacing:-0.88999999px;word-spacing:0px;fill:#a6192a;fill-opacity:1;stroke:#a6192a;stroke-width:1;stroke-miterlimit:4;stroke-opacity:1;stroke-dasharray:24, 24;stroke-dashoffset:0;font-family:HuiFont;-inkscape-font-specification:HuiFont"
       id="path5618"
       d="m 301.71987,340.93964 c -1.33521,-0.087 -2.26109,-1.44175 -2.03906,-2.7072 -0.168,-1.74133 0.74864,-3.38166 1.86328,-4.65804 1.91898,-1.24611 3.22882,1.2021 3.5321,2.77295 0.67794,2.05626 -1.334,4.35265 -3.35632,4.59229 z m 0.70313,-1.42383 c 1.40752,-0.71648 2.09068,-2.55887 1.2644,-3.9382 -0.11168,-0.78517 -0.79133,-1.68046 -1.44554,-0.76023 -0.94368,0.85835 -1.44882,2.13492 -1.3486,3.40078 -0.1435,0.59433 0.15971,1.88974 0.97167,1.54568 0.18603,-0.0827 0.37205,-0.16535 0.55807,-0.24803 z" />
    <path
       inkscape:connector-curvature="0"
       style="font-size:18px;font-style:normal;font-variant:normal;font-weight:normal;font-stretch:normal;line-height:125%;letter-spacing:-0.88999999px;word-spacing:0px;fill:#a6192a;fill-opacity:1;stroke:#a6192a;stroke-width:1;stroke-miterlimit:4;stroke-opacity:1;stroke-dasharray:24, 24;stroke-dashoffset:0;font-family:HuiFont;-inkscape-font-specification:HuiFont"
       id="path5620"
       d="m 308.93339,340.79901 c -0.78622,-0.43932 -0.71798,-1.23257 -0.80861,-1.96001 0.012,-0.79576 -0.13769,-1.54334 0.0879,-2.32906 -0.20508,-0.96094 -0.41015,-1.92187 -0.61523,-2.88281 1.51732,-0.81326 1.30161,3.19171 2.57213,0.84652 0.60014,-0.48022 1.24259,-1.05048 2.08183,-0.84652 0.83606,0.34729 1.6546,1.34219 0.8579,2.22693 -0.94719,0.45254 -1.12196,-2.13222 -2.19728,-0.28071 -1.13518,0.86731 -1.9064,2.2897 -1.41634,3.70647 0.0358,0.52666 0.39891,1.66776 -0.56229,1.51917" />
    <path
       inkscape:connector-curvature="0"
       style="font-size:18px;font-style:normal;font-variant:normal;font-weight:normal;font-stretch:normal;line-height:125%;letter-spacing:-0.88999999px;word-spacing:0px;fill:#a6192a;fill-opacity:1;stroke:#a6192a;stroke-width:1;stroke-miterlimit:4;stroke-opacity:1;stroke-dasharray:24, 24;stroke-dashoffset:0;font-family:HuiFont;-inkscape-font-specification:HuiFont"
       id="path5622"
       d="m 318.36175,340.86932 c -0.87511,-0.62617 -0.41648,-1.74574 -0.52735,-2.65462 -0.0478,-1.32674 0.15618,-2.54922 0.0879,-3.88445 0.38874,-0.88958 1.76413,-0.0193 1.31474,0.76527 -0.16485,0.73841 -0.069,1.5441 -0.17217,2.23185 0.0219,1.15621 -0.0892,2.24755 0,3.36617 l -0.30762,0.17578 -0.3955,0 z m 0.61523,-9 c -0.82367,0.0138 -1.90944,-1.81068 -0.70312,-1.95117 0.79823,0.24328 0.78515,1.04823 1.23048,1.51173 -0.0287,0.25942 -0.26485,0.4625 -0.52735,0.43945" />
    <path
       inkscape:connector-curvature="0"
       style="font-size:18px;font-style:normal;font-variant:normal;font-weight:normal;font-stretch:normal;line-height:125%;letter-spacing:-0.88999999px;word-spacing:0px;fill:#a6192a;fill-opacity:1;stroke:#a6192a;stroke-width:1;stroke-miterlimit:4;stroke-opacity:1;stroke-dasharray:24, 24;stroke-dashoffset:0;font-family:HuiFont;-inkscape-font-specification:HuiFont"
       id="path5624"
       d="m 325.61042,331.23651 c -1.31682,-0.61592 -0.70757,-2.16406 -0.84376,-3.28711 0.1233,-0.59064 0.0731,-2.02474 0.99363,-1.32889 0.96708,0.44746 -0.0389,1.53559 0.18411,2.30019 -0.0669,0.73404 -0.0218,1.43827 0.1758,2.15761 -0.16992,0.0527 -0.33985,0.10547 -0.50977,0.1582 z m 2.10939,-0.91406 c -0.71748,-0.47596 -0.51003,-1.31994 -0.42187,-1.99959 -0.0513,-0.77897 0.15604,-1.4508 0.0879,-2.23675 0.75631,-0.44284 1.57812,0.29357 1.22295,1.09508 -0.17522,0.81866 -0.11263,1.69665 -0.17369,2.48123 -0.18973,0.35413 -0.22272,0.69376 -0.71527,0.66003" />
  </g>
  <g
     id="g5713"
     transform="translate(-180.16976,-289.41575)">
    <path
       inkscape:connector-curvature="0"
       style="font-size:18px;font-style:normal;font-variant:normal;font-weight:normal;font-stretch:normal;line-height:125%;letter-spacing:-0.88999999px;word-spacing:0px;fill:#332924;fill-opacity:1;stroke:#332924;stroke-width:1;stroke-miterlimit:4;stroke-opacity:1;stroke-dasharray:24, 24;stroke-dashoffset:0;font-family:HuiFont;-inkscape-font-specification:HuiFont"
       id="path5626"
       d="m 341.65464,340.93964 c -0.41731,-0.40175 -0.95681,-0.80754 -0.79102,-1.46516 0.0316,-0.81958 -0.28231,-1.60495 -0.17578,-2.43195 -0.10495,-0.56499 -1.42656,-1.31761 -0.52733,-1.90368 0.59274,-0.11062 0.71106,-0.56706 0.61524,-1.09911 -0.0419,-0.72077 0.0834,-1.51602 -0.0617,-2.19083 -0.3118,-0.37409 -0.9804,-0.58927 -0.81716,-1.17491 0.36996,-0.36763 0.93371,-0.62822 0.87891,-1.23047 0.8641,0.1321 1.6272,-0.14436 2.48566,-0.28975 0.93664,-0.19358 2.4962,-0.059 2.56998,1.14198 0.0816,1.00056 -0.74479,1.85815 -1.28457,2.63732 -0.63937,0.49761 -0.67247,0.87919 0.15202,1.04897 0.94171,0.197 1.40426,1.11044 1.35036,2.03571 -0.39752,1.97171 -1.6644,3.89481 -3.52112,4.74472 -0.28127,0.0986 -0.57632,0.1561 -0.87341,0.17716 m 1.05469,-1.75782 c 1.09823,-0.95185 2.01632,-2.21028 2.17724,-3.68584 -0.10479,-0.38576 -0.65703,-0.85565 -1.08367,-0.51329 -0.58515,0.32849 -1.32545,0.53632 -1.81299,0.94074 -0.0545,0.50144 -0.32639,1.0347 -0.15948,1.49093 0.0137,0.63369 -0.10126,1.29377 0.26367,1.85536 0.24372,0.0953 0.42185,0.11196 0.61524,-0.0879 m -0.26367,-5.69531 c 0.70936,-0.87372 2.23898,-2.46807 1.95001,-3.28286 -0.78859,-0.14965 -1.51599,0.36502 -2.27631,0.52224 -0.51348,0.25756 -0.20516,0.97379 -0.28894,1.44225 0.20382,0.4199 0.0303,0.99609 0.0879,1.47657 0.21473,0.0401 0.35736,-0.0361 0.52735,-0.1582 z" />
    <path
       inkscape:connector-curvature="0"
       style="font-size:18px;font-style:normal;font-variant:normal;font-weight:normal;font-stretch:normal;line-height:125%;letter-spacing:-0.88999999px;word-spacing:0px;fill:#332924;fill-opacity:1;stroke:#332924;stroke-width:1;stroke-miterlimit:4;stroke-opacity:1;stroke-dasharray:24, 24;stroke-dashoffset:0;font-family:HuiFont;-inkscape-font-specification:HuiFont"
       id="path5628"
       d="m 350.37987,340.93964 c -0.87259,-0.0611 -1.56139,-0.63777 -1.88419,-1.42202 -0.32544,-0.5682 -0.0774,-1.29145 -0.15487,-1.92667 0.0218,-1.51205 0.91877,-2.89246 1.86328,-4.01655 0.70682,-0.45748 1.56334,-0.4419 2.19376,0.11168 0.87571,1.03205 1.46545,2.46278 1.49325,3.82369 -0.35797,1.66263 -1.76893,3.2388 -3.51123,3.42987 z m 0.70312,-1.42383 c 1.03885,-0.58474 1.7883,-1.74316 1.59962,-2.95272 -0.14728,-0.72595 -0.54515,-1.40305 -0.79101,-2.10978 -0.58392,-0.16292 -0.92281,0.25755 -1.27244,0.65242 -0.54699,0.6699 -1.06084,1.54464 -1.04788,2.42992 0.0665,0.58584 -0.23449,1.18075 0.11625,1.71596 0.0488,0.6049 0.71647,0.72782 1.13576,0.37962 0.0866,-0.0385 0.17313,-0.077 0.2597,-0.11542 z" />
    <path
       inkscape:connector-curvature="0"
       style="font-size:18px;font-style:normal;font-variant:normal;font-weight:normal;font-stretch:normal;line-height:125%;letter-spacing:-0.88999999px;word-spacing:0px;fill:#332924;fill-opacity:1;stroke:#332924;stroke-width:1;stroke-miterlimit:4;stroke-opacity:1;stroke-dasharray:24, 24;stroke-dashoffset:0;font-family:HuiFont;-inkscape-font-specification:HuiFont"
       id="path5630"
       d="m 358.64807,340.85175 c -0.91565,-0.24811 -2.09807,-1.04124 -2.15314,-2.01753 0.57929,-1.05562 1.18561,0.52381 1.78098,0.84198 0.764,0.43148 1.92022,-0.3405 2.04208,-1.11271 -1.13981,-1.01098 -2.38693,-2.12056 -3.02063,-3.51979 -0.3064,-0.92703 0.43415,-1.79987 1.34485,-1.97445 0.95217,-0.12664 2.02062,-0.52341 2.84032,0.22719 0.65284,0.30873 0.44228,1.3238 -0.23489,1.02983 -0.17251,-0.45656 -0.92917,-0.47308 -1.33372,-0.35317 -0.38782,0.27582 -1.11537,0.25466 -1.24641,0.75494 -0.27991,0.56758 0.38969,1.00784 0.58148,1.51216 0.90606,0.84896 2.23794,1.51059 2.29947,2.92404 -0.47714,0.85325 -1.22241,1.60404 -2.26319,1.67102 l -0.31311,0.0233 -0.32409,-0.007 z" />
    <path
       inkscape:connector-curvature="0"
       style="font-size:18px;font-style:normal;font-variant:normal;font-weight:normal;font-stretch:normal;line-height:125%;letter-spacing:-0.88999999px;word-spacing:0px;fill:#332924;fill-opacity:1;stroke:#332924;stroke-width:1;stroke-miterlimit:4;stroke-opacity:1;stroke-dasharray:24, 24;stroke-dashoffset:0;font-family:HuiFont;-inkscape-font-specification:HuiFont"
       id="path5632"
       d="m 365.3694,340.74628 c -0.62811,-0.43663 -1.26071,-0.93751 -1.31699,-1.77732 -0.32831,-2.05797 0.26405,-4.37974 1.97011,-5.68096 0.57863,-0.30577 1.37015,-0.12538 1.92647,0.17215 1.16899,0.55139 1.16636,2.02378 1.18213,3.15178 -0.0591,0.58996 0.0279,1.14751 0.35124,1.65264 0.10404,0.5664 0.66565,0.62206 0.75382,1.18922 0.26067,0.92562 -1.31179,0.5294 -1.45662,-0.18407 -0.23102,-0.66745 -0.82012,-1.30454 -1.09205,-0.20435 -0.57587,0.67894 -1.1711,1.81766 -2.1964,1.68091 l -0.0831,0 -0.0387,0 z m 0.43945,-1.38868 c 1.14656,-1.26636 2.26285,-2.93792 1.97306,-4.71774 -0.4116,-1.10928 -1.65417,0.18955 -1.89615,0.85165 -0.40984,0.92138 -0.80555,1.90052 -0.69214,2.92921 -0.0583,0.32331 0.17851,1.23407 0.61524,0.93687" />
    <path
       inkscape:connector-curvature="0"
       style="font-size:18px;font-style:normal;font-variant:normal;font-weight:normal;font-stretch:normal;line-height:125%;letter-spacing:-0.88999999px;word-spacing:0px;fill:#332924;fill-opacity:1;stroke:#332924;stroke-width:1;stroke-miterlimit:4;stroke-opacity:1;stroke-dasharray:24, 24;stroke-dashoffset:0;font-family:HuiFont;-inkscape-font-specification:HuiFont"
       id="path5634"
       d="m 373.95401,340.93964 c -0.30458,-0.32207 -0.85011,-0.64004 -0.52733,-1.14258 -0.20026,-0.48592 0.0935,-1.02197 -0.0879,-1.46691 0.13402,-0.79572 -0.28984,-1.60908 -0.53993,-2.23149 0.51732,-0.31219 0.48465,-0.84675 0.45204,-1.38129 -0.039,-0.48656 -0.13346,-0.95015 -0.0879,-1.47174 0.004,-0.52065 0.0251,-1.04802 -0.0879,-1.52005 -0.0296,-0.52628 0.0754,-1.06913 -0.0879,-1.57894 0.19451,-0.53774 0.88757,-0.43336 1.1694,-0.0272 0.4639,0.30592 0.14131,0.97357 0.23685,1.44891 0,1.20775 0,2.4155 0,3.62325 0.90151,0.24093 1.63543,-0.72333 2.31517,-1.19035 0.27137,-0.68284 1.21244,-0.28504 1.20235,0.30519 -0.46004,1.02482 -1.93308,1.59873 -3.00774,2.01017 0.2856,1.07291 1.9759,1.37925 2.80508,2.11652 0.70421,0.0726 0.73688,1.48617 -0.0479,1.06986 -0.93675,-0.36712 -2.40822,-1.78072 -3.10879,-1.45582 -0.0378,0.88234 0.0414,1.75731 0.17578,2.6288 -0.16297,0.25462 -0.49524,0.32093 -0.77344,0.26368" />
  </g>
  <text
     xml:space="preserve"
     style="font-size:40px;font-style:normal;font-weight:normal;line-height:125%;letter-spacing:0px;word-spacing:0px;fill:#000000;fill-opacity:1;stroke:none;font-family:Sans"
     x="60.138859"
     y="83.447189"
     id="text3313"
     sodipodi:linespacing="125%"><tspan
       sodipodi:role="line"
       id="tspan3315"
       x="60.138859"
       y="83.447189"
       style="font-size:14px;font-style:normal;font-variant:normal;font-weight:normal;font-stretch:normal;font-family:Purisa;-inkscape-font-specification:Purisa"><tspan
   style="font-size:14px;font-weight:bold"
   id="tspan3317">piotr.hitori.bosak</tspan>@gmail.com</tspan></text>
</svg>
